<svg version="1.1" id="Layer_1" xmlns="http://www.w3.org/2000/svg" xmlns:xlink="http://www.w3.org/1999/xlink" x="0px" y="0px"
	 width="100%" viewBox="0 0 1080 1080" enable-background="new 0 0 1080 1080" xml:space="preserve">
<path fill="#000000" opacity="1.000000" stroke="none" 
	d="
M627.000000,1081.000000 
	C418.024048,1081.000000 209.548126,1081.000000 1.036090,1081.000000 
	C1.036090,721.065613 1.036090,361.131195 1.036090,1.098403 
	C360.892853,1.098403 720.785706,1.098403 1080.839355,1.098403 
	C1080.839355,360.999939 1080.839355,720.999939 1080.839355,1081.000000 
	C929.797424,1081.000000 778.648743,1081.000000 627.000000,1081.000000 
M187.219498,948.838867 
	C193.113434,949.460083 199.265533,951.464050 204.848846,950.421631 
	C217.381500,948.081726 229.631653,944.228760 242.884216,941.105347 
	C248.913452,940.777161 254.942688,940.449036 261.206665,940.870544 
	C265.080261,941.294067 268.954803,941.709534 272.827332,942.142700 
	C287.145996,943.744385 301.467987,945.317688 315.781250,946.966675 
	C330.591583,948.672974 345.410797,950.319580 360.194275,952.237671 
	C379.078644,954.687988 397.931946,957.377686 416.796967,959.976746 
	C432.055054,962.078735 447.313721,964.176941 462.566467,966.317078 
	C480.605530,968.848389 498.632629,971.465698 516.675964,973.965698 
	C532.261963,976.125061 547.864624,978.163940 563.457825,980.271790 
	C582.328674,982.822632 601.177002,985.554016 620.073303,987.899048 
	C635.853516,989.857483 651.681152,991.447937 667.501953,993.061768 
	C684.643555,994.810303 701.801697,996.397278 718.998840,998.796753 
	C720.967712,1006.956116 727.065063,1012.151367 732.375366,1018.047302 
	C738.735168,1025.108643 747.873474,1023.826477 753.809570,1019.571106 
	C760.113403,1015.052124 765.095215,1009.669495 767.661133,1002.295532 
	C776.638062,1009.596619 784.663269,1008.536255 793.827393,998.645386 
	C795.635437,998.435486 797.456360,998.303040 799.249329,998.002991 
	C809.682495,996.257080 819.290466,993.327271 824.100464,982.424377 
	C829.805908,969.491638 823.446533,958.072815 810.786377,949.046814 
	C813.244629,928.590820 816.192261,908.179199 818.049622,887.668823 
	C821.048340,854.553833 823.473633,821.384277 825.862549,788.217712 
	C827.439758,766.319763 828.606445,744.390869 829.819275,722.468262 
	C831.638916,689.576843 833.321228,656.677856 835.096619,623.783997 
	C835.742188,611.823853 836.425964,599.865051 837.199951,587.912659 
	C838.779724,563.516418 840.360291,539.119873 842.081421,514.733398 
	C843.169983,499.310272 844.590759,483.910767 845.717468,468.490051 
	C846.601685,456.387634 847.263611,444.269043 848.773987,432.091919 
	C864.791321,438.404572 880.778625,444.795166 896.842468,450.987122 
	C902.398438,453.128754 907.907715,453.065918 912.793213,448.935883 
	C917.468140,444.983887 918.648315,440.058258 917.657471,434.118652 
	C909.087524,382.744263 900.608948,331.354584 892.134277,279.964355 
	C881.791321,217.244736 871.513367,154.514374 861.130066,91.801445 
	C858.280396,74.590187 840.955750,67.708626 827.189453,78.243805 
	C768.993896,122.780128 710.837646,167.367798 652.634216,211.893845 
	C640.215576,221.394241 627.659790,230.715485 614.328552,239.929092 
	C606.056091,239.007904 597.773254,238.170441 589.512756,237.151962 
	C534.509827,230.370193 479.496185,223.671600 424.516327,216.706757 
	C371.841522,210.033951 319.270477,202.446198 266.050323,199.059265 
	C262.708618,193.750854 259.586578,188.285294 255.943771,183.192230 
	C253.714691,180.075760 250.327164,178.901535 246.261581,179.673935 
	C234.525101,181.903610 227.734283,189.810516 222.159698,199.908691 
	C221.866394,200.054367 221.570816,200.195267 220.696579,200.042953 
	C220.492325,199.976379 220.288071,199.909821 219.922226,199.142685 
	C215.063705,193.945557 204.777359,195.433044 200.218216,201.965134 
	C189.996323,206.220612 186.857712,215.185135 184.235931,225.122101 
	C182.146011,231.169113 179.410950,237.078384 178.084991,243.288513 
	C173.800568,263.354767 169.728592,283.477875 166.171249,303.684052 
	C163.620850,318.170685 161.879761,332.807251 160.049011,347.410950 
	C158.444138,360.213104 157.229675,373.064056 155.819885,385.890930 
	C154.230011,400.356201 152.443466,414.802338 151.060745,429.287170 
	C149.802200,442.471252 149.031647,455.701141 147.935455,468.901672 
	C146.346725,488.033539 144.544266,507.148224 143.049210,526.287109 
	C141.875351,541.314026 140.955795,556.362061 140.055923,571.408691 
	C138.967407,589.609863 137.970215,607.816833 137.024963,626.026001 
	C136.285599,640.269287 135.563644,654.515503 135.052216,668.768250 
	C134.272156,690.506714 133.360947,712.247986 133.089539,733.995300 
	C132.747574,761.396790 132.727814,788.808838 133.063705,816.210266 
	C133.373123,841.454163 134.239395,866.693298 135.090714,891.926758 
	C135.273590,897.347168 136.444946,902.734253 137.099182,908.883240 
	C136.727112,910.588562 136.355026,912.293823 135.420319,914.412720 
	C127.475098,929.231140 130.062744,938.397583 144.536484,945.223877 
	C145.049637,945.786987 145.562790,946.350098 146.098679,947.640198 
	C150.799622,961.415039 169.626526,964.803589 181.357285,954.108459 
	C183.175873,952.450439 184.774658,950.551331 187.219498,948.838867 
z"/>
<path fill="#41B7D4" opacity="1.000000" stroke="none" 
	d="
M615.167175,240.119247 
	C627.659790,230.715485 640.215576,221.394241 652.634216,211.893845 
	C710.837646,167.367798 768.993896,122.780128 827.189453,78.243805 
	C840.955750,67.708626 858.280396,74.590187 861.130066,91.801445 
	C871.513367,154.514374 881.791321,217.244736 892.134277,279.964355 
	C900.608948,331.354584 909.087524,382.744263 917.657471,434.118652 
	C918.648315,440.058258 917.468140,444.983887 912.793213,448.935883 
	C907.907715,453.065918 902.398438,453.128754 896.842468,450.987122 
	C880.778625,444.795166 864.791321,438.404572 848.229980,431.806152 
	C837.126892,427.373932 826.567810,423.227417 815.715088,418.867981 
	C808.679443,416.053253 801.937561,413.451416 794.963928,410.574554 
	C784.170593,406.164856 773.608948,402.030212 762.821472,397.619385 
	C754.743103,394.220795 746.886230,391.109222 739.038818,387.974030 
	C677.340698,363.324585 615.653198,338.648407 553.925720,314.072723 
	C550.180115,312.581482 547.901978,310.262726 546.785034,306.468414 
	C545.053162,300.585510 547.361023,292.998474 552.207397,288.857697 
	C554.193298,287.160919 556.043030,285.304840 558.298096,283.381958 
	C562.022705,280.871307 565.498901,278.623138 568.768982,276.107178 
	C582.991211,265.164642 597.153503,254.144104 611.639771,243.074478 
	C613.017029,242.037766 614.092102,241.078491 615.167175,240.119247 
M784.475159,279.866028 
	C796.843750,253.165802 809.351929,226.528381 821.430420,199.697556 
	C823.239807,195.678329 824.204041,190.564545 823.514038,186.286987 
	C822.187256,178.061234 811.194397,170.839142 801.014404,170.212387 
	C793.808228,169.768738 788.244202,174.306702 784.989502,183.954483 
	C778.508362,203.165848 772.172546,222.427277 765.930908,241.717911 
	C762.862610,251.201004 759.902039,260.732574 757.343750,270.362061 
	C755.714417,276.494751 758.969727,284.005829 763.565857,286.549255 
	C768.756714,289.421814 776.382568,288.328583 781.209351,283.916168 
	C782.300720,282.918518 783.130859,281.635101 784.475159,279.866028 
M744.630981,331.003906 
	C747.067932,332.030640 749.427795,333.335114 751.955017,334.036896 
	C764.150879,337.423859 776.238281,326.726013 774.481262,314.216766 
	C773.276978,305.642853 767.223267,299.198334 759.203796,297.953064 
	C750.206848,296.555969 742.049805,300.360352 738.576782,307.573273 
	C734.916077,315.175995 737.008972,323.979797 744.630981,331.003906 
z"/>
<path fill="#DDE4EB" opacity="1.000000" stroke="none" 
	d="
M260.971924,940.120850 
	C254.942688,940.449036 248.913452,940.777161 242.137695,940.762268 
	C225.751816,939.268188 210.202393,939.571533 195.004883,943.932495 
	C191.871475,944.831604 188.993484,946.620911 185.631470,948.016846 
	C183.869980,947.612976 182.474792,947.192261 180.878815,946.496765 
	C179.499557,945.635498 178.300568,945.086609 177.145859,944.456604 
	C165.794571,938.263489 163.257935,931.751526 167.774658,919.547729 
	C169.596100,914.626404 171.932251,909.895630 174.333267,904.905334 
	C181.860077,894.797729 189.087769,884.862915 196.590576,874.685303 
	C208.909546,862.678894 220.953384,850.915283 233.287842,838.975708 
	C241.720383,831.423218 250.098969,824.289368 257.961060,816.625610 
	C284.565704,790.692200 314.520996,769.301514 346.088013,749.881531 
	C377.377899,730.632141 408.377167,710.895081 439.161682,690.846436 
	C452.511047,682.152527 465.002960,672.142029 477.891418,663.090027 
	C476.955261,664.773560 476.188416,666.280334 475.036530,667.386047 
	C471.207672,671.061340 467.142639,674.492188 463.343323,678.196350 
	C446.911560,694.216614 430.528351,710.286743 414.153442,726.365173 
	C393.859314,746.291748 373.613892,766.268005 353.294830,786.169250 
	C348.315277,791.046387 343.122742,795.705872 338.043030,800.481201 
	C315.542145,821.633606 293.106720,842.856262 270.515747,863.911926 
	C262.882507,871.026489 254.840347,877.701172 247.023804,884.620605 
	C242.779907,888.377563 238.617477,892.226624 233.477661,896.887085 
	C246.146164,896.887085 257.265839,896.887085 268.827942,896.841309 
	C285.851440,896.980225 302.432465,897.164917 319.159760,897.702515 
	C323.872650,898.032532 328.439301,898.009583 333.442505,897.893677 
	C336.253143,897.879089 338.627136,897.957458 341.102600,898.424316 
	C342.050781,899.203735 342.883179,899.897766 343.746552,899.938721 
	C352.530457,900.355103 361.320709,900.634277 370.106506,901.014526 
	C377.063782,901.315491 384.024078,901.602844 390.971130,902.072205 
	C409.636932,903.333313 428.297729,904.670105 446.957764,906.014709 
	C456.205963,906.681091 465.452393,907.379517 474.692047,908.154236 
	C489.528564,909.398376 504.358185,910.724609 519.191895,912.002686 
	C527.768005,912.741577 536.358276,913.337524 544.921265,914.204346 
	C559.890015,915.719727 574.840576,917.412659 589.802490,918.996643 
	C603.126343,920.407104 616.479187,921.574890 629.775818,923.204224 
	C646.673828,925.274902 663.582886,927.361572 680.387512,930.061462 
	C702.430176,933.602905 724.427246,937.485779 746.335144,941.777100 
	C754.098633,943.297852 761.410522,947.734985 769.166199,948.534180 
	C779.369385,949.585449 784.376404,956.263306 789.002930,963.416016 
	C794.137451,971.354004 791.384460,989.280396 776.593323,994.684021 
	C773.984558,995.636963 771.516418,996.974915 768.564575,998.220215 
	C766.728455,998.362976 765.310974,998.420715 763.450317,998.373169 
	C759.328796,998.201233 755.650574,998.134644 751.605591,997.897888 
	C749.916382,997.565247 748.595703,997.386353 747.271301,997.242615 
	C705.897827,992.753723 664.442200,988.907349 623.170532,983.623718 
	C569.194458,976.713745 515.418640,968.246948 461.455444,961.227966 
	C406.662048,954.100891 351.765625,947.744080 296.866913,941.464661 
	C285.005859,940.108032 272.942230,940.522278 260.971924,940.120850 
z"/>
<path fill="#0B1617" opacity="1.000000" stroke="none" 
	d="
M137.160965,908.136658 
	C136.444946,902.734253 135.273590,897.347168 135.090714,891.926758 
	C134.239395,866.693298 133.373123,841.454163 133.063705,816.210266 
	C132.727814,788.808838 132.747574,761.396790 133.089539,733.995300 
	C133.360947,712.247986 134.272156,690.506714 135.052216,668.768250 
	C135.563644,654.515503 136.285599,640.269287 137.024963,626.026001 
	C137.970215,607.816833 138.967407,589.609863 140.055923,571.408691 
	C140.955795,556.362061 141.875351,541.314026 143.049210,526.287109 
	C144.544266,507.148224 146.346725,488.033539 147.935455,468.901672 
	C149.031647,455.701141 149.802200,442.471252 151.060745,429.287170 
	C152.443466,414.802338 154.230011,400.356201 155.819885,385.890930 
	C157.229675,373.064056 158.444138,360.213104 160.049011,347.410950 
	C161.879761,332.807251 163.620850,318.170685 166.171249,303.684052 
	C169.728592,283.477875 173.800568,263.354767 178.084991,243.288513 
	C179.410950,237.078384 182.146011,231.169113 184.626740,225.435196 
	C187.335190,239.254471 194.173279,249.932190 205.194641,258.362427 
	C205.249542,259.466339 205.303040,260.201172 205.231110,261.345520 
	C200.434311,294.613068 195.235565,327.407227 191.245422,360.347809 
	C187.533020,390.995728 184.873657,421.779144 182.187225,452.541046 
	C179.846451,479.345062 177.975098,506.192780 176.156723,533.038879 
	C174.618378,555.750732 173.322571,578.481262 172.159164,601.215759 
	C170.995209,623.960999 169.965866,646.715759 169.175644,669.476746 
	C168.321472,694.080261 167.346848,718.694275 167.263855,743.306519 
	C167.144882,778.591858 167.738800,813.880371 168.151993,849.166077 
	C168.217987,854.801697 168.929596,860.429871 169.267715,866.423706 
	C169.082932,867.517456 168.973145,868.248962 168.527191,869.021484 
	C156.679535,879.153198 147.880478,891.379517 140.191483,904.496216 
	C139.403671,905.840088 138.181549,906.929321 137.160965,908.136658 
z"/>
<path fill="#215E6D" opacity="1.000000" stroke="none" 
	d="
M816.008789,419.080902 
	C826.567810,423.227417 837.126892,427.373932 847.855103,431.839020 
	C847.263611,444.269043 846.601685,456.387634 845.717468,468.490051 
	C844.590759,483.910767 843.169983,499.310272 842.081421,514.733398 
	C840.360291,539.119873 838.779724,563.516418 837.199951,587.912659 
	C836.425964,599.865051 835.742188,611.823853 835.096619,623.783997 
	C833.321228,656.677856 831.638916,689.576843 829.819275,722.468262 
	C828.606445,744.390869 827.439758,766.319763 825.862549,788.217712 
	C823.473633,821.384277 821.048340,854.553833 818.049622,887.668823 
	C816.192261,908.179199 813.244629,928.590820 810.463379,949.482422 
	C800.095520,946.919556 790.050598,943.921082 780.003845,940.483459 
	C780.423706,935.261597 780.785156,930.472717 781.278931,925.697510 
	C782.486450,914.018982 783.911438,902.360718 784.952332,890.667847 
	C785.862976,880.439270 786.286682,870.168396 787.073486,859.927551 
	C788.316101,843.754761 789.755554,827.596985 790.970520,811.422241 
	C791.764771,800.849731 792.343811,790.260559 792.958862,779.675354 
	C793.997253,761.804077 795.064819,743.933960 795.974915,726.055969 
	C796.759216,710.647888 797.320496,695.228455 798.022400,679.815918 
	C798.308960,673.522583 798.644043,667.230225 799.064880,660.944580 
	C800.348267,641.776123 801.779846,622.617004 802.966919,603.442749 
	C803.807068,589.871887 804.314941,576.280762 805.030273,562.701782 
	C805.317871,557.241882 805.725464,551.787292 806.144348,546.335388 
	C807.412231,529.831299 808.743164,513.332092 809.988708,496.826355 
	C810.749023,486.749939 811.324158,476.659363 812.113159,466.585358 
	C813.353699,450.746002 814.704590,434.915283 816.008789,419.080902 
z"/>
<path fill="#ECF0F4" opacity="1.000000" stroke="none" 
	d="
M780.005676,940.922607 
	C790.050598,943.921082 800.095520,946.919556 810.505371,949.918945 
	C823.446533,958.072815 829.805908,969.491638 824.100464,982.424377 
	C819.290466,993.327271 809.682495,996.257080 799.249329,998.002991 
	C797.456360,998.303040 795.635437,998.435486 792.981201,998.682861 
	C784.417847,998.525269 776.700623,998.330200 768.983398,998.135132 
	C771.516418,996.974915 773.984558,995.636963 776.593323,994.684021 
	C791.384460,989.280396 794.137451,971.354004 789.002930,963.416016 
	C784.376404,956.263306 779.369385,949.585449 769.166199,948.534180 
	C761.410522,947.734985 754.098633,943.297852 746.335144,941.777100 
	C724.427246,937.485779 702.430176,933.602905 680.387512,930.061462 
	C663.582886,927.361572 646.673828,925.274902 629.775818,923.204224 
	C616.479187,921.574890 603.126343,920.407104 589.802490,918.996643 
	C574.840576,917.412659 559.890015,915.719727 544.921265,914.204346 
	C536.358276,913.337524 527.768005,912.741577 519.191895,912.002686 
	C504.358185,910.724609 489.528564,909.398376 474.692047,908.154236 
	C465.452393,907.379517 456.205963,906.681091 446.957764,906.014709 
	C428.297729,904.670105 409.636932,903.333313 390.971130,902.072205 
	C384.024078,901.602844 377.063782,901.315491 370.106506,901.014526 
	C361.320709,900.634277 352.530457,900.355103 343.746552,899.938721 
	C342.883179,899.897766 342.050781,899.203735 341.566162,898.354736 
	C356.726349,898.603027 371.533142,899.162109 386.320618,900.045532 
	C419.724243,902.041199 453.141541,903.885132 486.509705,906.374878 
	C520.535095,908.913696 554.533142,911.893860 588.496948,915.161621 
	C617.813843,917.982361 647.069641,921.442688 676.344360,924.693298 
	C688.239075,926.014099 700.112305,927.528381 712.377686,929.110291 
	C724.174133,931.015930 735.588196,932.765930 747.340210,934.672729 
	C758.453979,936.860474 769.229797,938.891541 780.005676,940.922607 
z"/>
<path fill="#23262A" opacity="1.000000" stroke="none" 
	d="
M261.089294,940.495667 
	C272.942230,940.522278 285.005859,940.108032 296.866913,941.464661 
	C351.765625,947.744080 406.662048,954.100891 461.455444,961.227966 
	C515.418640,968.246948 569.194458,976.713745 623.170532,983.623718 
	C664.442200,988.907349 705.897827,992.753723 747.271301,997.242615 
	C748.595703,997.386353 749.916382,997.565247 751.299072,998.175598 
	C740.557068,998.433838 729.754883,998.244202 718.952637,998.054565 
	C701.801697,996.397278 684.643555,994.810303 667.501953,993.061768 
	C651.681152,991.447937 635.853516,989.857483 620.073303,987.899048 
	C601.177002,985.554016 582.328674,982.822632 563.457825,980.271790 
	C547.864624,978.163940 532.261963,976.125061 516.675964,973.965698 
	C498.632629,971.465698 480.605530,968.848389 462.566467,966.317078 
	C447.313721,964.176941 432.055054,962.078735 416.796967,959.976746 
	C397.931946,957.377686 379.078644,954.687988 360.194275,952.237671 
	C345.410797,950.319580 330.591583,948.672974 315.781250,946.966675 
	C301.467987,945.317688 287.145996,943.744385 272.827332,942.142700 
	C268.954803,941.709534 265.080261,941.294067 261.089294,940.495667 
z"/>
<path fill="#263338" opacity="1.000000" stroke="none" 
	d="
M137.130081,908.509949 
	C138.181549,906.929321 139.403671,905.840088 140.191483,904.496216 
	C147.880478,891.379517 156.679535,879.153198 168.818771,869.322266 
	C169.964264,875.643188 170.281952,881.730225 171.057083,887.758484 
	C171.803467,893.563354 173.022690,899.307373 174.034164,905.078125 
	C171.932251,909.895630 169.596100,914.626404 167.774658,919.547729 
	C163.257935,931.751526 165.794571,938.263489 177.145859,944.456604 
	C178.300568,945.086609 179.499557,945.635498 180.683258,946.821289 
	C173.426285,950.708923 165.930511,952.188843 158.036758,950.182495 
	C154.031586,949.164490 150.061752,948.007446 146.075943,946.913208 
	C145.562790,946.350098 145.049637,945.786987 144.276794,944.663269 
	C143.867035,942.801514 143.835434,941.473450 143.547623,940.203552 
	C141.706360,932.078796 139.845673,923.957764 137.867264,915.865967 
	C137.688263,915.133911 136.631851,914.616333 135.982925,913.999146 
	C136.355026,912.293823 136.727112,910.588562 137.130081,908.509949 
z"/>
<path fill="#E9EDF1" opacity="1.000000" stroke="none" 
	d="
M614.747864,240.024155 
	C614.092102,241.078491 613.017029,242.037766 611.185181,243.028900 
	C602.347778,242.321274 594.257019,241.677368 586.188782,240.821381 
	C571.713257,239.285629 557.249390,237.638855 542.784119,236.007462 
	C530.450562,234.616470 518.112549,233.259064 505.793640,231.746841 
	C490.855499,229.913071 475.940613,227.890396 461.006012,226.027176 
	C446.721344,224.245026 432.413605,222.645874 418.135437,220.814651 
	C401.073761,218.626434 384.032928,216.276047 366.982788,213.997833 
	C355.016541,212.398926 343.059631,210.725708 331.080750,209.227951 
	C319.093811,207.729202 307.101929,206.232315 295.080750,205.055954 
	C282.556671,203.830383 269.991974,203.022827 257.456421,201.905045 
	C256.590546,201.827835 255.819336,200.689407 255.457642,199.954559 
	C259.331390,199.827560 262.751617,199.790451 266.171814,199.753357 
	C319.270477,202.446198 371.841522,210.033951 424.516327,216.706757 
	C479.496185,223.671600 534.509827,230.370193 589.512756,237.151962 
	C597.773254,238.170441 606.056091,239.007904 614.747864,240.024155 
z"/>
<path fill="#263237" opacity="1.000000" stroke="none" 
	d="
M205.193268,257.993317 
	C194.173279,249.932190 187.335190,239.254471 184.975311,225.352509 
	C186.857712,215.185135 189.996323,206.220612 201.005951,201.962570 
	C207.890411,201.254410 213.987106,200.548828 220.083817,199.843246 
	C220.288071,199.909821 220.492325,199.976379 220.927155,200.538635 
	C217.922928,211.065659 214.404022,221.016678 211.539124,231.152557 
	C209.040863,239.991241 207.279968,249.038315 205.193268,257.993317 
z"/>
<path fill="#3D7383" opacity="1.000000" stroke="none" 
	d="
M205.194656,258.362427 
	C207.279968,249.038315 209.040863,239.991241 211.539124,231.152557 
	C214.404022,221.016678 217.922928,211.065659 221.215332,200.682861 
	C221.570816,200.195267 221.866394,200.054367 222.890289,199.912048 
	C228.753052,200.331757 233.885254,200.748123 238.740540,201.392090 
	C224.606216,204.559555 217.418579,217.415527 221.039749,231.145569 
	C223.246429,239.512512 227.667786,246.211243 233.089493,253.034302 
	C232.702850,263.098236 232.379410,272.660004 231.954865,282.217285 
	C231.898163,283.494019 231.329422,284.748047 230.689178,285.873169 
	C227.610809,283.199066 224.739197,280.765839 222.092422,278.108673 
	C216.451965,272.446045 210.928146,266.667206 205.356537,260.936005 
	C205.303040,260.201172 205.249542,259.466339 205.194656,258.362427 
z"/>
<path fill="#0B1617" opacity="1.000000" stroke="none" 
	d="
M718.975708,998.425659 
	C729.754883,998.244202 740.557068,998.433838 751.665833,998.345764 
	C755.650574,998.134644 759.328796,998.201233 763.594788,998.634521 
	C765.146362,999.986267 766.110168,1000.971375 767.073975,1001.956543 
	C765.095215,1009.669495 760.113403,1015.052124 753.809570,1019.571106 
	C747.873474,1023.826477 738.735168,1025.108643 732.375366,1018.047302 
	C727.065063,1012.151367 720.967712,1006.956116 718.975708,998.425659 
z"/>
<path fill="#225C6B" opacity="1.000000" stroke="none" 
	d="
M239.017441,201.164490 
	C233.885254,200.748123 228.753052,200.331757 223.125885,199.841248 
	C227.734283,189.810516 234.525101,181.903610 246.261581,179.673935 
	C250.327164,178.901535 253.714691,180.075760 255.943771,183.192230 
	C259.586578,188.285294 262.708618,193.750854 266.111084,199.406311 
	C262.751617,199.790451 259.331390,199.827560 255.006073,199.893936 
	C249.073120,200.336990 244.045288,200.750748 239.017441,201.164490 
z"/>
<path fill="#ECF0F4" opacity="1.000000" stroke="none" 
	d="
M185.997772,948.000000 
	C188.993484,946.620911 191.871475,944.831604 195.004883,943.932495 
	C210.202393,939.571533 225.751816,939.268188 241.694000,940.705566 
	C229.631653,944.228760 217.381500,948.081726 204.848846,950.421631 
	C199.265533,951.464050 193.113434,949.460083 186.759216,948.590820 
	C186.298935,948.342773 185.997772,947.999939 185.997772,948.000000 
z"/>
<path fill="#0B1617" opacity="1.000000" stroke="none" 
	d="
M185.631470,948.016846 
	C185.997772,947.999939 186.298935,948.342773 186.387024,948.553223 
	C184.774658,950.551331 183.175873,952.450439 181.357285,954.108459 
	C169.626526,964.803589 150.799622,961.415039 146.087311,947.276733 
	C150.061752,948.007446 154.031586,949.164490 158.036758,950.182495 
	C165.930511,952.188843 173.426285,950.708923 180.884064,947.096069 
	C182.474792,947.192261 183.869980,947.612976 185.631470,948.016846 
z"/>
<path fill="#1E2125" opacity="1.000000" stroke="none" 
	d="
M135.701614,914.205933 
	C136.631851,914.616333 137.688263,915.133911 137.867264,915.865967 
	C139.845673,923.957764 141.706360,932.078796 143.547623,940.203552 
	C143.835434,941.473450 143.867035,942.801514 144.027145,944.519775 
	C130.062744,938.397583 127.475098,929.231140 135.701614,914.205933 
z"/>
<path fill="#255F6D" opacity="1.000000" stroke="none" 
	d="
M767.367554,1002.126038 
	C766.110168,1000.971375 765.146362,999.986267 764.038086,998.739868 
	C765.310974,998.420715 766.728455,998.362976 768.564636,998.220215 
	C776.700623,998.330200 784.417847,998.525269 792.601929,998.829468 
	C784.663269,1008.536255 776.638062,1009.596619 767.367554,1002.126038 
z"/>
<path fill="#0B1617" opacity="1.000000" stroke="none" 
	d="
M220.003021,199.492966 
	C213.987106,200.548828 207.890411,201.254410 201.364288,201.924194 
	C204.777359,195.433044 215.063705,193.945557 220.003021,199.492966 
z"/>
<path fill="#000000" opacity="1.000000" stroke="none" 
	d="
M711.995300,928.954651 
	C700.112305,927.528381 688.239075,926.014099 676.344360,924.693298 
	C647.069641,921.442688 617.813843,917.982361 588.496948,915.161621 
	C554.533142,911.893860 520.535095,908.913696 486.509705,906.374878 
	C453.141541,903.885132 419.724243,902.041199 386.320618,900.045532 
	C371.533142,899.162109 356.726349,898.603027 341.464722,897.966187 
	C338.627136,897.957458 336.253143,897.879089 333.054688,897.779053 
	C327.824677,897.621399 323.419098,897.485474 319.013489,897.349609 
	C302.432465,897.164917 285.851440,896.980225 268.932617,896.546265 
	C277.741241,888.302368 287.165955,880.602112 295.987701,872.263916 
	C342.958710,827.867615 389.910400,783.449158 436.608887,738.766785 
	C473.190826,703.764282 507.974365,666.886658 546.480103,633.887817 
	C560.089600,622.224731 571.834839,609.005737 579.575256,592.489929 
	C583.346619,584.442993 585.483154,576.426819 582.097961,568.003845 
	C579.321716,561.096191 576.393738,554.055664 572.277588,547.915588 
	C557.654358,526.102112 543.207031,504.110474 527.392517,483.168365 
	C491.641418,435.825409 452.980438,390.846588 412.710938,347.310669 
	C388.074127,320.675446 362.361359,295.035431 337.039734,268.662781 
	C336.577484,267.765350 336.207275,267.153656 335.863281,266.585297 
	C364.012024,268.472687 391.888062,270.300629 419.757599,272.223145 
	C443.318512,273.848419 466.886780,275.400177 490.424225,277.322357 
	C512.952881,279.162170 535.445984,281.437378 557.954712,283.521210 
	C556.043030,285.304840 554.193298,287.160919 552.207397,288.857697 
	C547.361023,292.998474 545.053162,300.585510 546.785034,306.468414 
	C547.901978,310.262726 550.180115,312.581482 553.925720,314.072723 
	C615.653198,338.648407 677.340698,363.324585 739.038818,387.974030 
	C746.886230,391.109222 754.743103,394.220795 762.808594,398.075378 
	C762.606079,403.926514 762.342285,409.063385 761.745117,414.161163 
	C760.244812,426.970459 758.593933,439.762115 757.003113,452.560822 
	C755.554504,464.215271 754.121948,475.871735 752.652039,487.523499 
	C751.120483,499.663879 749.523193,511.796051 748.009155,523.938599 
	C746.535461,535.757629 745.147339,547.587219 743.692017,559.408569 
	C741.812988,574.672241 739.808655,589.921082 738.037415,605.197144 
	C736.512878,618.345154 735.316101,631.530945 733.833923,644.684204 
	C732.315552,658.158752 730.457520,671.596619 729.057190,685.082581 
	C727.501770,700.062256 726.371521,715.085571 724.916931,730.076355 
	C723.367126,746.047729 721.511169,761.990173 720.052673,777.969299 
	C718.547852,794.455505 717.220093,810.960876 716.073242,827.475830 
	C714.890625,844.505310 713.765076,861.546326 713.084045,878.600952 
	C712.414429,895.373291 712.334167,912.169128 711.995300,928.954651 
z"/>
<path fill="#DDE4EB" opacity="1.000000" stroke="none" 
	d="
M558.298096,283.381958 
	C535.445984,281.437378 512.952881,279.162170 490.424225,277.322357 
	C466.886780,275.400177 443.318512,273.848419 419.757599,272.223145 
	C391.888062,270.300629 364.012024,268.472687 335.863281,266.585297 
	C336.207275,267.153656 336.577484,267.765350 336.597809,268.683167 
	C324.477203,268.026093 312.706451,267.062927 299.934540,266.017853 
	C301.616028,267.891418 302.538696,269.003784 303.547760,270.031372 
	C322.796967,289.633423 342.083801,309.198639 361.295837,328.837006 
	C366.641571,334.301361 371.917847,339.847656 376.974701,345.578064 
	C393.330688,364.112854 409.666565,382.667145 425.823853,401.374878 
	C439.156769,416.812408 452.553467,432.214722 465.324829,448.112274 
	C480.172638,466.594482 494.669891,485.377594 508.762146,504.441956 
	C521.994995,522.343750 534.749939,540.592651 544.498413,560.780396 
	C549.894409,571.954834 550.029480,582.276550 544.401123,593.611389 
	C535.592834,611.350342 522.327576,625.032349 507.672699,637.705200 
	C506.768311,638.487305 505.284760,638.599548 504.166534,638.703369 
	C511.282867,629.335876 518.909729,620.688110 525.192017,611.154297 
	C536.701660,593.687439 538.919861,574.598511 531.553650,554.951355 
	C528.190918,545.982300 524.084167,537.152588 519.205261,528.916992 
	C502.620422,500.921783 481.236816,476.620056 457.669220,454.506653 
	C426.855957,425.594666 395.254211,397.494965 363.370911,369.759369 
	C330.991333,341.592072 297.856873,314.292572 264.915558,286.326385 
	C261.618225,282.885834 258.365112,279.819092 255.316910,276.560669 
	C247.867828,268.597900 240.513519,260.546478 233.121048,252.530731 
	C227.667786,246.211243 223.246429,239.512512 221.039749,231.145569 
	C217.418579,217.415527 224.606216,204.559555 238.740540,201.392105 
	C244.045288,200.750748 249.073120,200.336990 254.552551,199.983856 
	C255.819336,200.689407 256.590546,201.827835 257.456421,201.905045 
	C269.991974,203.022827 282.556671,203.830383 295.080750,205.055954 
	C307.101929,206.232315 319.093811,207.729202 331.080750,209.227951 
	C343.059631,210.725708 355.016541,212.398926 366.982788,213.997833 
	C384.032928,216.276047 401.073761,218.626434 418.135437,220.814651 
	C432.413605,222.645874 446.721344,224.245026 461.006012,226.027176 
	C475.940613,227.890396 490.855499,229.913071 505.793640,231.746841 
	C518.112549,233.259064 530.450562,234.616470 542.784119,236.007462 
	C557.249390,237.638855 571.713257,239.285629 586.188782,240.821381 
	C594.257019,241.677368 602.347778,242.321274 610.882935,243.106354 
	C597.153503,254.144104 582.991211,265.164642 568.768982,276.107178 
	C565.498901,278.623138 562.022705,280.871307 558.298096,283.381958 
z"/>
<path fill="#0B1617" opacity="1.000000" stroke="none" 
	d="
M712.377686,929.110291 
	C712.334167,912.169128 712.414429,895.373291 713.084045,878.600952 
	C713.765076,861.546326 714.890625,844.505310 716.073242,827.475830 
	C717.220093,810.960876 718.547852,794.455505 720.052673,777.969299 
	C721.511169,761.990173 723.367126,746.047729 724.916931,730.076355 
	C726.371521,715.085571 727.501770,700.062256 729.057190,685.082581 
	C730.457520,671.596619 732.315552,658.158752 733.833923,644.684204 
	C735.316101,631.530945 736.512878,618.345154 738.037415,605.197144 
	C739.808655,589.921082 741.812988,574.672241 743.692017,559.408569 
	C745.147339,547.587219 746.535461,535.757629 748.009155,523.938599 
	C749.523193,511.796051 751.120483,499.663879 752.652039,487.523499 
	C754.121948,475.871735 755.554504,464.215271 757.003113,452.560822 
	C758.593933,439.762115 760.244812,426.970459 761.745117,414.161163 
	C762.342285,409.063385 762.606079,403.926514 763.034485,398.351501 
	C773.608948,402.030212 784.170593,406.164856 794.868896,410.996979 
	C791.987854,434.913391 788.919922,458.125946 785.967529,481.353180 
	C783.496521,500.792786 781.163330,520.249878 778.763977,539.698547 
	C776.202209,560.464172 773.482117,581.211731 771.109924,601.998901 
	C768.511047,624.771484 766.212891,647.578613 763.816956,670.374146 
	C761.542664,692.012512 759.103577,713.636414 757.119507,735.301697 
	C755.119263,757.143188 753.426392,779.016357 751.896606,800.896423 
	C750.134521,826.099243 748.257690,851.307495 747.264282,876.546143 
	C746.504700,895.842957 747.041870,915.190857 747.002319,934.515991 
	C735.588196,932.765930 724.174133,931.015930 712.377686,929.110291 
z"/>
<path fill="#276978" opacity="1.000000" stroke="none" 
	d="
M747.340210,934.672729 
	C747.041870,915.190857 746.504700,895.842957 747.264282,876.546143 
	C748.257690,851.307495 750.134521,826.099243 751.896606,800.896423 
	C753.426392,779.016357 755.119263,757.143188 757.119507,735.301697 
	C759.103577,713.636414 761.542664,692.012512 763.816956,670.374146 
	C766.212891,647.578613 768.511047,624.771484 771.109924,601.998901 
	C773.482117,581.211731 776.202209,560.464172 778.763977,539.698547 
	C781.163330,520.249878 783.496521,500.792786 785.967529,481.353180 
	C788.919922,458.125946 791.987854,434.913391 795.100708,411.272034 
	C801.937561,413.451416 808.679443,416.053253 815.715088,418.867981 
	C814.704590,434.915283 813.353699,450.746002 812.113159,466.585358 
	C811.324158,476.659363 810.749023,486.749939 809.988708,496.826355 
	C808.743164,513.332092 807.412231,529.831299 806.144348,546.335388 
	C805.725464,551.787292 805.317871,557.241882 805.030273,562.701782 
	C804.314941,576.280762 803.807068,589.871887 802.966919,603.442749 
	C801.779846,622.617004 800.348267,641.776123 799.064880,660.944580 
	C798.644043,667.230225 798.308960,673.522583 798.022400,679.815918 
	C797.320496,695.228455 796.759216,710.647888 795.974915,726.055969 
	C795.064819,743.933960 793.997253,761.804077 792.958862,779.675354 
	C792.343811,790.260559 791.764771,800.849731 790.970520,811.422241 
	C789.755554,827.596985 788.316101,843.754761 787.073486,859.927551 
	C786.286682,870.168396 785.862976,880.439270 784.952332,890.667847 
	C783.911438,902.360718 782.486450,914.018982 781.278931,925.697510 
	C780.785156,930.472717 780.423706,935.261597 780.003845,940.483398 
	C769.229797,938.891541 758.453979,936.860474 747.340210,934.672729 
z"/>
<path fill="#02194F" opacity="1.000000" stroke="none" 
	d="
M784.278198,280.174622 
	C783.130859,281.635101 782.300720,282.918518 781.209351,283.916168 
	C776.382568,288.328583 768.756714,289.421814 763.565857,286.549255 
	C758.969727,284.005829 755.714417,276.494751 757.343750,270.362061 
	C759.902039,260.732574 762.862610,251.201004 765.930908,241.717911 
	C772.172546,222.427277 778.508362,203.165848 784.989502,183.954483 
	C788.244202,174.306702 793.808228,169.768738 801.014404,170.212387 
	C811.194397,170.839142 822.187256,178.061234 823.514038,186.286987 
	C824.204041,190.564545 823.239807,195.678329 821.430420,199.697556 
	C809.351929,226.528381 796.843750,253.165802 784.278198,280.174622 
z"/>
<path fill="#021A50" opacity="1.000000" stroke="none" 
	d="
M744.336548,330.783447 
	C737.008972,323.979797 734.916077,315.175995 738.576782,307.573273 
	C742.049805,300.360352 750.206848,296.555969 759.203796,297.953064 
	C767.223267,299.198334 773.276978,305.642853 774.481262,314.216766 
	C776.238281,326.726013 764.150879,337.423859 751.955017,334.036896 
	C749.427795,333.335114 747.067932,332.030640 744.336548,330.783447 
z"/>
<path fill="#F0F4F8" opacity="1.000000" stroke="none" 
	d="
M504.070679,639.023499 
	C505.284760,638.599548 506.768311,638.487305 507.672699,637.705200 
	C522.327576,625.032349 535.592834,611.350342 544.401123,593.611389 
	C550.029480,582.276550 549.894409,571.954834 544.498413,560.780396 
	C534.749939,540.592651 521.994995,522.343750 508.762146,504.441956 
	C494.669891,485.377594 480.172638,466.594482 465.324829,448.112274 
	C452.553467,432.214722 439.156769,416.812408 425.823853,401.374878 
	C409.666565,382.667145 393.330688,364.112854 376.974701,345.578064 
	C371.917847,339.847656 366.641571,334.301361 361.295837,328.837006 
	C342.083801,309.198639 322.796967,289.633423 303.547760,270.031372 
	C302.538696,269.003784 301.616028,267.891418 299.934540,266.017853 
	C312.706451,267.062927 324.477203,268.026093 336.689880,268.968872 
	C362.361359,295.035431 388.074127,320.675446 412.710938,347.310669 
	C452.980438,390.846588 491.641418,435.825409 527.392517,483.168365 
	C543.207031,504.110474 557.654358,526.102112 572.277588,547.915588 
	C576.393738,554.055664 579.321716,561.096191 582.097961,568.003845 
	C585.483154,576.426819 583.346619,584.442993 579.575256,592.489929 
	C571.834839,609.005737 560.089600,622.224731 546.480103,633.887817 
	C507.974365,666.886658 473.190826,703.764282 436.608887,738.766785 
	C389.910400,783.449158 342.958710,827.867615 295.987701,872.263916 
	C287.165955,880.602112 277.741241,888.302368 268.490173,896.592041 
	C257.265839,896.887085 246.146164,896.887085 233.477661,896.887085 
	C238.617477,892.226624 242.779907,888.377563 247.023804,884.620605 
	C254.840347,877.701172 262.882507,871.026489 270.515747,863.911926 
	C293.106720,842.856262 315.542145,821.633606 338.043030,800.481201 
	C343.122742,795.705872 348.315277,791.046387 353.294830,786.169250 
	C373.613892,766.268005 393.859314,746.291748 414.153442,726.365173 
	C430.528351,710.286743 446.911560,694.216614 463.343323,678.196350 
	C467.142639,674.492188 471.207672,671.061340 475.036530,667.386047 
	C476.188416,666.280334 476.955261,664.773560 478.048889,662.802979 
	C486.823090,654.444824 495.446869,646.734192 504.070679,639.023499 
z"/>
<path fill="#1F2226" opacity="1.000000" stroke="none" 
	d="
M504.166534,638.703369 
	C495.446869,646.734192 486.823090,654.444824 478.041809,662.442505 
	C465.002960,672.142029 452.511047,682.152527 439.161682,690.846436 
	C408.377167,710.895081 377.377899,730.632141 346.088013,749.881531 
	C314.520996,769.301514 284.565704,790.692200 257.961060,816.625610 
	C250.098969,824.289368 241.720383,831.423218 232.980621,838.685608 
	C232.287918,836.445862 232.006638,834.309387 232.130981,832.196838 
	C232.623245,823.833252 233.242477,815.477173 233.882431,806.824585 
	C234.003387,806.337830 234.056580,806.144714 234.446533,805.923950 
	C240.488129,800.840820 245.762299,795.167053 251.974548,790.840149 
	C275.277405,774.609314 298.475891,758.168091 322.474670,743.010864 
	C360.976379,718.694031 400.384766,695.778015 436.404114,667.735229 
	C453.856110,654.148010 470.270233,639.467407 483.805817,621.752075 
	C502.932465,596.719116 506.141876,570.585754 491.718079,542.037292 
	C478.198364,515.278259 459.508667,492.476624 439.216675,470.909302 
	C413.096527,443.147552 384.893280,417.521332 356.057373,392.608887 
	C344.627319,382.734100 333.077179,372.996338 321.489441,363.306519 
	C308.632416,352.555298 295.721130,341.867401 282.731812,331.276642 
	C276.344025,326.068451 269.726807,321.141724 263.155518,315.750092 
	C263.087311,314.956909 263.077026,314.501190 263.102905,313.624451 
	C263.777069,304.339966 264.415039,295.476471 265.053009,286.613007 
	C297.856873,314.292572 330.991333,341.592072 363.370911,369.759369 
	C395.254211,397.494965 426.855957,425.594666 457.669220,454.506653 
	C481.236816,476.620056 502.620422,500.921783 519.205261,528.916992 
	C524.084167,537.152588 528.190918,545.982300 531.553650,554.951355 
	C538.919861,574.598511 536.701660,593.687439 525.192017,611.154297 
	C518.909729,620.688110 511.282867,629.335876 504.166534,638.703369 
z"/>
<path fill="#396A7A" opacity="1.000000" stroke="none" 
	d="
M233.814667,807.118286 
	C233.242477,815.477173 232.623245,823.833252 232.130981,832.196838 
	C232.006638,834.309387 232.287918,836.445862 232.690018,838.861450 
	C220.953384,850.915283 208.909546,862.678894 196.516602,874.162781 
	C196.778122,862.588684 197.388763,851.294312 198.108521,839.745056 
	C198.479340,839.002075 198.741043,838.514038 199.300140,837.869385 
	C203.164780,834.543152 206.741592,831.384094 210.297318,828.201538 
	C218.142059,821.180054 225.976212,814.146790 233.814667,807.118286 
z"/>
<path fill="#3C7383" opacity="1.000000" stroke="none" 
	d="
M197.999390,840.000000 
	C197.388763,851.294312 196.778122,862.588684 196.241486,874.405518 
	C189.087769,884.862915 181.860077,894.797729 174.333267,904.905334 
	C173.022690,899.307373 171.803467,893.563354 171.057083,887.758484 
	C170.281952,881.730225 169.964264,875.643188 169.154938,869.281128 
	C168.973145,868.248962 169.082932,867.517456 169.578476,866.352783 
	C171.459244,864.629761 172.998764,863.387817 174.441788,862.042419 
	C182.307419,854.708923 190.149323,847.350098 197.999390,840.000000 
z"/>
<path fill="#ECF0F4" opacity="1.000000" stroke="none" 
	d="
M319.159760,897.702515 
	C323.419098,897.485474 327.824677,897.621399 332.618103,897.871948 
	C328.439301,898.009583 323.872650,898.032532 319.159760,897.702515 
z"/>
<path fill="#266776" opacity="1.000000" stroke="none" 
	d="
M198.108521,839.745056 
	C190.149323,847.350098 182.307419,854.708923 174.441788,862.042419 
	C172.998764,863.387817 171.459244,864.629761 169.653488,865.990479 
	C168.929596,860.429871 168.217987,854.801697 168.151993,849.166077 
	C167.738800,813.880371 167.144882,778.591858 167.263855,743.306519 
	C167.346848,718.694275 168.321472,694.080261 169.175644,669.476746 
	C169.965866,646.715759 170.995209,623.960999 172.159164,601.215759 
	C173.322571,578.481262 174.618378,555.750732 176.156723,533.038879 
	C177.975098,506.192780 179.846451,479.345062 182.187225,452.541046 
	C184.873657,421.779144 187.533020,390.995728 191.245422,360.347809 
	C195.235565,327.407227 200.434311,294.613068 205.231110,261.345520 
	C210.928146,266.667206 216.451965,272.446045 222.092422,278.108673 
	C224.739197,280.765839 227.610809,283.199066 230.799973,286.127502 
	C231.481857,287.009888 231.744324,287.498505 231.722275,288.290070 
	C230.626114,299.652618 229.668594,310.703888 229.039139,321.773834 
	C228.219879,336.181213 227.680283,350.604370 226.980988,365.018799 
	C226.691803,370.979523 226.351303,376.938751 225.946350,382.892670 
	C224.653870,401.896088 223.260712,420.892853 222.020432,439.899597 
	C220.941360,456.436157 220.003189,472.981934 219.028183,489.525146 
	C218.004211,506.899139 217.019318,524.275452 216.000290,541.649780 
	C215.359924,552.567932 214.674683,563.483398 214.033646,574.401489 
	C213.013535,591.775757 212.023438,609.151855 211.002075,626.526001 
	C210.019791,643.235474 209.005554,659.943054 208.020767,676.652344 
	C207.006607,693.860168 205.953461,711.065918 205.025360,728.278442 
	C204.266281,742.356262 203.686127,756.443604 202.985764,770.524719 
	C202.697556,776.319092 202.298218,782.107788 201.956314,787.899536 
	C200.969910,804.608215 199.987000,821.317139 199.002731,838.025940 
	C198.741043,838.514038 198.479340,839.002075 198.108521,839.745056 
z"/>
<path fill="#386A7A" opacity="1.000000" stroke="none" 
	d="
M232.006805,287.987091 
	C231.744324,287.498505 231.481857,287.009888 231.108597,286.266937 
	C231.329422,284.748047 231.898163,283.494019 231.954865,282.217285 
	C232.379410,272.660004 232.702850,263.098236 233.089493,253.034302 
	C240.513519,260.546478 247.867828,268.597900 255.316910,276.560669 
	C258.365112,279.819092 261.618225,282.885834 264.915558,286.326385 
	C264.415039,295.476471 263.777069,304.339966 262.751099,313.575287 
	C261.304169,313.193207 260.174530,312.520691 259.197235,311.672607 
	C250.118805,303.794647 241.066605,295.886505 232.006805,287.987091 
z"/>
<path fill="#000000" opacity="1.000000" stroke="none" 
	d="
M263.213409,316.087585 
	C269.726807,321.141724 276.344025,326.068451 282.731812,331.276642 
	C295.721130,341.867401 308.632416,352.555298 321.489441,363.306519 
	C333.077179,372.996338 344.627319,382.734100 356.057373,392.608887 
	C384.893280,417.521332 413.096527,443.147552 439.216675,470.909302 
	C459.508667,492.476624 478.198364,515.278259 491.718079,542.037292 
	C506.141876,570.585754 502.932465,596.719116 483.805817,621.752075 
	C470.270233,639.467407 453.856110,654.148010 436.404114,667.735229 
	C400.384766,695.778015 360.976379,718.694031 322.474670,743.010864 
	C298.475891,758.168091 275.277405,774.609314 251.974548,790.840149 
	C245.762299,795.167053 240.488129,800.840820 234.428253,805.490540 
	C234.331573,802.439392 234.670822,799.798950 234.835785,797.147705 
	C236.529251,769.931213 238.212769,742.714050 239.861832,715.494812 
	C241.219345,693.087830 242.535049,670.678345 243.854279,648.269043 
	C245.535095,619.717407 247.197235,591.164673 248.873917,562.612793 
	C250.531067,534.393311 252.196381,506.174255 253.857971,477.955017 
	C255.529373,449.569183 257.223175,421.184662 258.865234,392.797119 
	C260.344177,367.229004 261.766266,341.657562 263.213409,316.087585 
z"/>
<path fill="#215C6B" opacity="1.000000" stroke="none" 
	d="
M263.155518,315.750092 
	C261.766266,341.657562 260.344177,367.229004 258.865234,392.797119 
	C257.223175,421.184662 255.529373,449.569183 253.857971,477.955017 
	C252.196381,506.174255 250.531067,534.393311 248.873917,562.612793 
	C247.197235,591.164673 245.535095,619.717407 243.854279,648.269043 
	C242.535049,670.678345 241.219345,693.087830 239.861832,715.494812 
	C238.212769,742.714050 236.529251,769.931213 234.835785,797.147705 
	C234.670822,799.798950 234.331573,802.439392 234.091492,805.518188 
	C234.056580,806.144714 234.003387,806.337830 233.882446,806.824585 
	C225.976212,814.146790 218.142059,821.180054 210.297318,828.201538 
	C206.741592,831.384094 203.164780,834.543152 199.300125,837.869385 
	C199.987000,821.317139 200.969910,804.608215 201.956314,787.899536 
	C202.298218,782.107788 202.697556,776.319092 202.985764,770.524719 
	C203.686127,756.443604 204.266281,742.356262 205.025360,728.278442 
	C205.953461,711.065918 207.006607,693.860168 208.020767,676.652344 
	C209.005554,659.943054 210.019791,643.235474 211.002075,626.526001 
	C212.023438,609.151855 213.013535,591.775757 214.033646,574.401489 
	C214.674683,563.483398 215.359924,552.567932 216.000290,541.649780 
	C217.019318,524.275452 218.004211,506.899139 219.028183,489.525146 
	C220.003189,472.981934 220.941360,456.436157 222.020432,439.899597 
	C223.260712,420.892853 224.653870,401.896088 225.946350,382.892670 
	C226.351303,376.938751 226.691803,370.979523 226.980988,365.018799 
	C227.680283,350.604370 228.219879,336.181213 229.039139,321.773834 
	C229.668594,310.703888 230.626114,299.652618 231.722260,288.290070 
	C241.066605,295.886505 250.118805,303.794647 259.197235,311.672607 
	C260.174530,312.520691 261.304169,313.193207 262.714966,313.996338 
	C263.077026,314.501190 263.087311,314.956909 263.155518,315.750092 
z"/>
</svg>