<svg version="1.1" id="Layer_1" xmlns="http://www.w3.org/2000/svg" xmlns:xlink="http://www.w3.org/1999/xlink" x="0px" y="0px"
	 width="100%" viewBox="0 0 1080 1080" enable-background="new 0 0 1080 1080" xml:space="preserve">
<path fill="#000000" opacity="1.000000" stroke="none" 
	d="
M627.000000,1081.000000 
	C418.024048,1081.000000 209.548126,1081.000000 1.036090,1081.000000 
	C1.036090,721.065613 1.036090,361.131195 1.036090,1.098403 
	C360.892853,1.098403 720.785706,1.098403 1080.839355,1.098403 
	C1080.839355,360.999939 1080.839355,720.999939 1080.839355,1081.000000 
	C929.797424,1081.000000 778.648743,1081.000000 627.000000,1081.000000 
M187.220993,948.837952 
	C193.114655,949.458618 199.266327,951.461426 204.849518,950.419128 
	C217.381729,948.079468 229.631577,944.227356 242.884216,941.105286 
	C251.245895,940.780884 259.607574,940.456482 268.128815,940.881958 
	C268.810883,941.245117 269.472168,941.876160 270.178162,941.930908 
	C279.751221,942.673950 289.376190,942.956055 298.898743,944.098694 
	C319.090424,946.521423 339.235016,949.341736 359.388794,952.073914 
	C383.507874,955.343750 407.618530,958.675964 431.728668,962.011292 
	C448.951447,964.393921 466.169159,966.813477 483.385834,969.240051 
	C501.576965,971.804016 519.758667,974.435303 537.954956,976.962219 
	C551.063477,978.782654 564.191101,980.465027 577.306458,982.236694 
	C591.249451,984.120300 605.165833,986.222473 619.134338,987.889832 
	C635.250061,989.813354 651.403809,991.427856 667.552551,993.062378 
	C684.679077,994.795898 701.819153,996.395325 718.999268,998.795715 
	C720.969177,1006.961914 726.780212,1012.418457 732.463135,1017.992615 
	C738.850220,1024.257446 745.950134,1024.872314 753.355896,1019.820251 
	C759.902466,1015.354248 765.074463,1009.887268 767.661133,1002.295349 
	C776.636902,1009.596436 784.645752,1008.538574 793.828613,998.645325 
	C795.636536,998.435547 797.457520,998.303284 799.250305,998.003052 
	C809.682678,996.255676 819.291931,993.326416 824.101013,982.423645 
	C829.801880,969.498840 823.457153,958.078735 810.786438,949.046814 
	C813.579102,924.949158 816.810852,900.892334 819.051819,876.743469 
	C821.770813,847.442932 823.787964,818.074280 825.853516,788.717163 
	C827.382812,766.982361 828.585144,745.223450 829.788696,723.467285 
	C831.617554,690.409485 833.305847,657.343872 835.086304,624.283386 
	C835.739441,612.156860 836.419678,600.031128 837.202393,587.912415 
	C838.778076,563.516174 840.359924,539.119934 842.080688,514.733643 
	C843.169006,499.310455 844.590515,483.910919 845.717346,468.490173 
	C846.601746,456.387726 847.263550,444.269043 848.773987,432.091827 
	C864.791443,438.404694 880.778870,444.795685 896.842896,450.987762 
	C902.399109,453.129517 907.910950,453.065063 912.793579,448.934570 
	C917.464111,444.983521 918.646667,440.061981 917.654785,434.117523 
	C909.082642,382.743835 900.605713,331.354218 892.131775,279.964172 
	C881.789612,217.244247 871.512390,154.513580 861.130066,91.800301 
	C858.280518,74.588020 840.956665,67.707703 827.187561,78.245033 
	C768.992310,122.781204 710.836548,167.369003 652.633545,211.894943 
	C640.215149,221.395157 627.659485,230.715897 614.328491,239.929230 
	C606.055786,239.008118 597.772766,238.171005 589.512085,237.152344 
	C534.509766,230.369720 479.497437,223.665329 424.517365,216.705856 
	C371.841766,210.038071 319.270996,202.443253 266.049469,199.059555 
	C262.707611,193.751251 259.583527,188.287338 255.943298,183.192215 
	C253.712906,180.070419 250.322540,178.904465 246.260483,179.675446 
	C234.524231,181.902939 227.732681,189.809448 222.159866,199.908691 
	C221.866455,200.054291 221.570770,200.195084 220.696686,200.042068 
	C220.492462,199.975281 220.288254,199.908478 219.918579,199.137573 
	C215.061523,194.503967 206.394165,195.423019 200.343063,201.247162 
	C190.902237,206.352936 186.476791,214.718338 184.236191,225.121979 
	C182.146271,231.168991 179.411255,237.078278 178.085220,243.288391 
	C173.800507,263.354767 169.669785,283.469025 166.186417,303.686615 
	C163.548828,318.995300 161.911621,334.480133 159.979767,349.905457 
	C158.499969,361.721130 157.247940,373.565430 155.907974,385.398499 
	C154.270523,399.858521 152.460556,414.302246 151.072144,428.786285 
	C149.792587,442.135071 149.039505,455.533447 147.933777,468.900024 
	C146.351120,488.032196 144.555435,507.147156 143.046387,526.284912 
	C141.887650,540.979797 140.940323,555.693176 140.062943,570.408081 
	C138.957870,588.941528 137.983414,607.483032 137.021408,626.024597 
	C136.299652,639.935791 135.559525,653.848022 135.054443,667.768005 
	C134.271713,689.339905 133.569000,710.916138 133.057236,732.495850 
	C132.788803,743.815125 133.119995,755.147461 132.954407,766.470642 
	C132.820953,775.596069 132.110153,784.716125 132.096497,793.839294 
	C132.084091,802.128723 132.732422,810.416992 132.973816,818.709229 
	C133.684311,843.114990 134.237534,867.525879 135.090134,891.926514 
	C135.279556,897.347351 136.444916,902.734131 137.099167,908.883179 
	C136.727097,910.588501 136.355011,912.293823 135.420380,914.412720 
	C127.474472,929.214539 130.067322,938.399475 144.536484,945.223877 
	C145.049652,945.786987 145.562836,946.350098 146.098679,947.640198 
	C151.011353,961.704346 169.647003,964.510132 181.361206,954.101196 
	C183.197601,952.469482 184.778000,950.549622 187.220993,948.837952 
z"/>
<path fill="#41B7D4" opacity="1.000000" stroke="none" 
	d="
M615.167053,240.119324 
	C627.659485,230.715897 640.215149,221.395157 652.633545,211.894943 
	C710.836548,167.369003 768.992310,122.781204 827.187561,78.245033 
	C840.956665,67.707703 858.280518,74.588020 861.130066,91.800301 
	C871.512390,154.513580 881.789612,217.244247 892.131775,279.964172 
	C900.605713,331.354218 909.082642,382.743835 917.654785,434.117523 
	C918.646667,440.061981 917.464111,444.983521 912.793579,448.934570 
	C907.910950,453.065063 902.399109,453.129517 896.842896,450.987762 
	C880.778870,444.795685 864.791443,438.404694 848.229919,431.806091 
	C837.126831,427.373871 826.567810,423.227386 815.715088,418.868042 
	C808.679443,416.053314 801.937561,413.451477 794.963928,410.574585 
	C784.170471,406.165222 773.608704,402.030945 762.820801,397.620850 
	C692.887634,369.521423 623.164062,341.739136 553.536926,313.717285 
	C550.861145,312.640411 548.326721,309.610779 547.096985,306.875000 
	C544.516541,301.134186 547.220825,293.111298 552.203918,288.859619 
	C554.191895,287.163422 556.041870,285.305573 558.297974,283.382019 
	C562.022644,280.871307 565.498779,278.623199 568.768860,276.107208 
	C582.991150,265.164703 597.153259,254.144135 611.639404,243.074463 
	C613.016724,242.037766 614.091919,241.078537 615.167053,240.119324 
M823.953613,193.020493 
	C824.713196,181.576385 817.598572,173.541138 804.286133,170.808044 
	C794.676392,168.835129 788.817627,172.635315 784.953125,184.106216 
	C777.474854,206.303543 770.209534,228.573196 762.967041,250.848999 
	C760.862610,257.321716 758.889038,263.858215 757.307373,270.473511 
	C755.837036,276.623260 759.059998,284.118835 763.662476,286.605377 
	C768.885193,289.427002 776.596680,288.359192 781.253479,283.814026 
	C782.988708,282.120361 784.357422,279.908173 785.433472,277.707642 
	C789.594360,269.198425 793.675964,260.646729 797.592651,252.022522 
	C806.385864,232.660202 815.062805,213.245087 823.953613,193.020493 
M758.044128,334.603546 
	C758.694214,334.462585 759.344238,334.321594 759.994324,334.180634 
	C769.755798,332.063904 775.980103,323.096222 774.325134,313.533386 
	C772.436829,302.621674 763.534973,296.388000 752.056580,297.939545 
	C742.277954,299.261353 736.047424,307.326416 736.995483,317.435364 
	C737.959290,327.713013 745.930908,334.522675 758.044128,334.603546 
z"/>
<path fill="#DDE4EB" opacity="1.000000" stroke="none" 
	d="
M267.969269,940.132080 
	C259.607574,940.456482 251.245895,940.780884 242.137390,940.761963 
	C225.751724,939.269165 210.202652,939.571655 195.005554,943.932373 
	C191.872131,944.831421 188.994049,946.620361 185.631927,948.016357 
	C183.870255,947.612915 182.474945,947.192261 180.878845,946.496826 
	C179.499603,945.635559 178.300690,945.086548 177.145966,944.456604 
	C165.794495,938.263306 163.257858,931.751587 167.774612,919.547729 
	C169.596085,914.626404 171.932251,909.895630 174.333267,904.905334 
	C181.860046,894.797729 189.087723,884.862915 196.590515,874.685364 
	C208.909515,862.678955 220.953400,850.915283 233.287872,838.975708 
	C241.720322,831.423218 250.098862,824.289368 257.960968,816.625671 
	C284.565826,790.692566 314.520874,769.301514 346.088013,749.881592 
	C377.377960,730.632263 408.377197,710.895203 439.161621,690.846497 
	C452.511047,682.152649 465.002899,672.142029 477.891418,663.089966 
	C476.955261,664.773621 476.188354,666.280518 475.036407,667.386292 
	C471.207550,671.061584 467.142426,674.492310 463.343109,678.196533 
	C446.911346,694.216736 430.528076,710.286865 414.153198,726.365295 
	C393.859070,746.291870 373.613739,766.268311 353.294708,786.169495 
	C348.315155,791.046692 343.122498,795.705994 338.042725,800.481323 
	C315.541840,821.633728 293.106506,842.856384 270.515625,863.912231 
	C262.882355,871.026794 254.839981,877.701172 247.023453,884.620667 
	C242.779617,888.377625 238.617432,892.226868 233.478180,896.887024 
	C246.146255,896.887024 257.265991,896.887024 268.828033,896.839478 
	C285.851379,896.977722 302.432434,897.163635 319.159668,897.702454 
	C323.872467,898.032776 328.439026,898.010132 333.442444,897.896240 
	C336.253174,897.881042 338.627014,897.957153 341.102081,898.421997 
	C342.049591,899.202271 342.881470,899.897583 343.744415,899.938538 
	C352.528381,900.355042 361.318695,900.634338 370.104553,901.014526 
	C377.061859,901.315491 384.022186,901.602722 390.969269,902.072021 
	C409.635162,903.333191 428.295990,904.670105 446.956116,906.014648 
	C456.204346,906.680969 465.450897,907.379272 474.690552,908.154053 
	C489.527191,909.398071 504.356842,910.724609 519.190674,912.002686 
	C527.766846,912.741577 536.357056,913.337341 544.920105,914.204163 
	C559.888916,915.719543 574.839600,917.412659 589.801575,918.996643 
	C603.125427,920.407104 616.478333,921.574768 629.774963,923.204102 
	C646.673035,925.274719 663.582092,927.361633 680.386841,930.061584 
	C702.429565,933.603088 724.426819,937.485718 746.334839,941.776978 
	C754.098389,943.297729 761.410217,947.735168 769.165955,948.534180 
	C779.369385,949.585205 784.376465,956.263062 789.002808,963.415955 
	C794.137329,971.354614 791.384521,989.279846 776.593384,994.684082 
	C773.984680,995.637207 771.516479,996.974976 768.564697,998.220215 
	C766.728760,998.362915 765.311584,998.420532 763.451050,998.372681 
	C759.329407,998.200500 755.651001,998.133789 751.605713,997.896973 
	C749.584167,997.540527 747.930969,997.339600 746.274597,997.169678 
	C715.471313,994.009460 684.621033,991.245117 653.877075,987.587097 
	C622.150391,983.812012 590.517517,979.238220 558.861328,974.884827 
	C528.691040,970.735901 498.550140,966.373901 468.384186,962.192871 
	C443.491089,958.742615 418.608032,955.196899 393.670044,952.099915 
	C365.755554,948.633179 337.810944,945.359924 309.826263,942.528076 
	C295.935364,941.122437 281.925385,940.893372 267.969269,940.132080 
z"/>
<path fill="#0B1617" opacity="1.000000" stroke="none" 
	d="
M137.160919,908.136597 
	C136.444916,902.734131 135.279556,897.347351 135.090134,891.926514 
	C134.237534,867.525879 133.684311,843.114990 132.973816,818.709229 
	C132.732422,810.416992 132.084091,802.128723 132.096497,793.839294 
	C132.110153,784.716125 132.820953,775.596069 132.954407,766.470642 
	C133.119995,755.147461 132.788803,743.815125 133.057236,732.495850 
	C133.569000,710.916138 134.271713,689.339905 135.054443,667.768005 
	C135.559525,653.848022 136.299652,639.935791 137.021408,626.024597 
	C137.983414,607.483032 138.957870,588.941528 140.062943,570.408081 
	C140.940323,555.693176 141.887650,540.979797 143.046387,526.284912 
	C144.555435,507.147156 146.351120,488.032196 147.933777,468.900024 
	C149.039505,455.533447 149.792587,442.135071 151.072144,428.786285 
	C152.460556,414.302246 154.270523,399.858521 155.907974,385.398499 
	C157.247940,373.565430 158.499969,361.721130 159.979767,349.905457 
	C161.911621,334.480133 163.548828,318.995300 166.186417,303.686615 
	C169.669785,283.469025 173.800507,263.354767 178.085220,243.288391 
	C179.411255,237.078278 182.146271,231.168991 184.626984,225.435211 
	C187.335052,239.254700 194.173447,249.932144 205.194611,258.362427 
	C205.249527,259.466339 205.303024,260.201172 205.231079,261.345520 
	C200.434265,294.613129 195.235519,327.407379 191.245407,360.348022 
	C187.532990,390.995911 184.873596,421.779327 182.187180,452.541199 
	C179.846405,479.345184 177.975052,506.192932 176.156693,533.039001 
	C174.618332,555.750854 173.322571,578.481323 172.159180,601.215820 
	C170.995209,623.961060 169.965820,646.715759 169.175613,669.476746 
	C168.321411,694.080261 167.346817,718.694275 167.263840,743.306519 
	C167.144867,778.591858 167.738785,813.880371 168.151993,849.166077 
	C168.217987,854.801697 168.929581,860.429871 169.267700,866.423706 
	C169.082932,867.517456 168.973160,868.248962 168.527222,869.021484 
	C156.679306,879.153076 147.880753,891.379822 140.191330,904.496216 
	C139.403549,905.840027 138.181458,906.929260 137.160919,908.136597 
z"/>
<path fill="#215E6D" opacity="1.000000" stroke="none" 
	d="
M816.008789,419.080933 
	C826.567810,423.227386 837.126831,427.373871 847.855042,431.838928 
	C847.263550,444.269043 846.601746,456.387726 845.717346,468.490173 
	C844.590515,483.910919 843.169006,499.310455 842.080688,514.733643 
	C840.359924,539.119934 838.778076,563.516174 837.202393,587.912415 
	C836.419678,600.031128 835.739441,612.156860 835.086304,624.283386 
	C833.305847,657.343872 831.617554,690.409485 829.788696,723.467285 
	C828.585144,745.223450 827.382812,766.982361 825.853516,788.717163 
	C823.787964,818.074280 821.770813,847.442932 819.051819,876.743469 
	C816.810852,900.892334 813.579102,924.949158 810.463440,949.482422 
	C800.095520,946.919556 790.050659,943.921082 780.003906,940.483398 
	C780.423767,935.261536 780.785278,930.472656 781.279053,925.697388 
	C782.486633,914.018860 783.911499,902.360596 784.952332,890.667725 
	C785.862854,880.439148 786.286499,870.168274 787.073303,859.927429 
	C788.315918,843.754700 789.755432,827.596924 790.970520,811.422241 
	C791.764832,800.849792 792.343811,790.260559 792.958862,779.675415 
	C793.997253,761.804138 795.064941,743.934021 795.974976,726.056030 
	C796.759216,710.647888 797.320496,695.228516 798.022400,679.815918 
	C798.309021,673.522644 798.643982,667.230225 799.064819,660.944641 
	C800.348206,641.776123 801.779968,622.617065 802.966980,603.442749 
	C803.807129,589.871887 804.314880,576.280762 805.030151,562.701782 
	C805.317749,557.241821 805.725464,551.787292 806.144348,546.335327 
	C807.412231,529.831238 808.743164,513.332031 809.988708,496.826324 
	C810.749023,486.749908 811.323975,476.659332 812.113037,466.585358 
	C813.353577,450.746002 814.704529,434.915314 816.008789,419.080933 
z"/>
<path fill="#ECF0F4" opacity="1.000000" stroke="none" 
	d="
M780.005737,940.922607 
	C790.050659,943.921082 800.095520,946.919556 810.505371,949.918884 
	C823.457153,958.078735 829.801880,969.498840 824.101013,982.423645 
	C819.291931,993.326416 809.682678,996.255676 799.250305,998.003052 
	C797.457520,998.303284 795.636536,998.435547 792.982605,998.682373 
	C784.418884,998.524719 776.701111,998.329956 768.983398,998.135132 
	C771.516479,996.974976 773.984680,995.637207 776.593384,994.684082 
	C791.384521,989.279846 794.137329,971.354614 789.002808,963.415955 
	C784.376465,956.263062 779.369385,949.585205 769.165955,948.534180 
	C761.410217,947.735168 754.098389,943.297729 746.334839,941.776978 
	C724.426819,937.485718 702.429565,933.603088 680.386841,930.061584 
	C663.582092,927.361633 646.673035,925.274719 629.774963,923.204102 
	C616.478333,921.574768 603.125427,920.407104 589.801575,918.996643 
	C574.839600,917.412659 559.888916,915.719543 544.920105,914.204163 
	C536.357056,913.337341 527.766846,912.741577 519.190674,912.002686 
	C504.356842,910.724609 489.527191,909.398071 474.690552,908.154053 
	C465.450897,907.379272 456.204346,906.680969 446.956116,906.014648 
	C428.295990,904.670105 409.635162,903.333191 390.969269,902.072021 
	C384.022186,901.602722 377.061859,901.315491 370.104553,901.014526 
	C361.318695,900.634338 352.528381,900.355042 343.744415,899.938538 
	C342.881470,899.897583 342.049591,899.202271 341.565643,898.352356 
	C358.389709,898.663696 374.861938,899.256897 391.310822,900.240723 
	C423.052032,902.139343 454.802368,903.963867 486.507477,906.366028 
	C520.530945,908.943909 554.531494,911.893433 588.495789,915.161560 
	C617.812805,917.982666 647.068970,921.442810 676.343872,924.693420 
	C688.238770,926.014221 700.112122,927.528259 712.377686,929.109985 
	C724.174133,931.015747 735.588257,932.765869 747.340210,934.672668 
	C758.454041,936.860413 769.229858,938.891541 780.005737,940.922607 
z"/>
<path fill="#23272B" opacity="1.000000" stroke="none" 
	d="
M268.049042,940.507019 
	C281.925385,940.893372 295.935364,941.122437 309.826263,942.528076 
	C337.810944,945.359924 365.755554,948.633179 393.670044,952.099915 
	C418.608032,955.196899 443.491089,958.742615 468.384186,962.192871 
	C498.550140,966.373901 528.691040,970.735901 558.861328,974.884827 
	C590.517517,979.238220 622.150391,983.812012 653.877075,987.587097 
	C684.621033,991.245117 715.471313,994.009460 746.274597,997.169678 
	C747.930969,997.339600 749.584167,997.540527 751.299194,998.174866 
	C740.557434,998.432983 729.755371,998.243164 718.953308,998.053345 
	C701.819153,996.395325 684.679077,994.795898 667.552551,993.062378 
	C651.403809,991.427856 635.250061,989.813354 619.134338,987.889832 
	C605.165833,986.222473 591.249451,984.120300 577.306458,982.236694 
	C564.191101,980.465027 551.063477,978.782654 537.954956,976.962219 
	C519.758667,974.435303 501.576965,971.804016 483.385834,969.240051 
	C466.169159,966.813477 448.951447,964.393921 431.728668,962.011292 
	C407.618530,958.675964 383.507874,955.343750 359.388794,952.073914 
	C339.235016,949.341736 319.090424,946.521423 298.898743,944.098694 
	C289.376190,942.956055 279.751221,942.673950 270.178162,941.930908 
	C269.472168,941.876160 268.810883,941.245117 268.049042,940.507019 
z"/>
<path fill="#263338" opacity="1.000000" stroke="none" 
	d="
M137.130035,908.509888 
	C138.181458,906.929260 139.403549,905.840027 140.191330,904.496216 
	C147.880753,891.379822 156.679306,879.153076 168.818787,869.322266 
	C169.964264,875.643188 170.281952,881.730225 171.057083,887.758484 
	C171.803467,893.563354 173.022690,899.307373 174.034164,905.078125 
	C171.932251,909.895630 169.596085,914.626404 167.774612,919.547729 
	C163.257858,931.751587 165.794495,938.263306 177.145966,944.456604 
	C178.300690,945.086548 179.499603,945.635559 180.683319,946.821411 
	C173.426300,950.708557 165.930649,952.188965 158.036835,950.182434 
	C154.031677,949.164307 150.061829,948.007446 146.076019,946.913208 
	C145.562836,946.350098 145.049652,945.786987 144.276794,944.663330 
	C143.867035,942.801575 143.835449,941.473511 143.547653,940.203613 
	C141.706390,932.078796 139.845688,923.957825 137.867310,915.865906 
	C137.688293,915.133850 136.631882,914.616333 135.982941,913.999146 
	C136.355011,912.293823 136.727097,910.588501 137.130035,908.509888 
z"/>
<path fill="#E9EDF1" opacity="1.000000" stroke="none" 
	d="
M614.747803,240.024277 
	C614.091919,241.078537 613.016724,242.037766 611.184814,243.028870 
	C602.347534,242.321228 594.256775,241.677246 586.188538,240.821274 
	C571.713013,239.285507 557.249268,237.638824 542.783997,236.007446 
	C530.450500,234.616486 518.112488,233.259018 505.793610,231.746796 
	C490.855530,229.913040 475.940704,227.890381 461.006165,226.027161 
	C446.721252,224.244980 432.413269,222.645813 418.134857,220.814560 
	C401.073273,218.626343 384.032471,216.276031 366.982422,213.997833 
	C355.016266,212.398926 343.059357,210.725647 331.080536,209.227859 
	C319.093689,207.729095 307.101868,206.232224 295.080750,205.055878 
	C282.556702,203.830322 269.992035,203.022797 257.456512,201.905029 
	C256.590637,201.827835 255.819382,200.689499 255.457672,199.954758 
	C259.331360,199.827728 262.751526,199.790588 266.171692,199.753448 
	C319.270996,202.443253 371.841766,210.038071 424.517365,216.705856 
	C479.497437,223.665329 534.509766,230.369720 589.512085,237.152344 
	C597.772766,238.171005 606.055786,239.008118 614.747803,240.024277 
z"/>
<path fill="#263237" opacity="1.000000" stroke="none" 
	d="
M205.193207,257.993317 
	C194.173447,249.932144 187.335052,239.254700 184.975616,225.352661 
	C186.476791,214.718338 190.902237,206.352936 200.952209,201.438934 
	C207.735580,201.034363 213.909821,200.438034 220.084061,199.841705 
	C220.288254,199.908478 220.492462,199.975281 220.927185,200.538086 
	C217.922913,211.065475 214.404037,221.016556 211.539108,231.152481 
	C209.040848,239.991180 207.279922,249.038300 205.193207,257.993317 
z"/>
<path fill="#3D7383" opacity="1.000000" stroke="none" 
	d="
M205.194611,258.362427 
	C207.279922,249.038300 209.040848,239.991180 211.539108,231.152481 
	C214.404037,221.016556 217.922913,211.065475 221.215240,200.682587 
	C221.570770,200.195084 221.866455,200.054291 222.890503,199.912231 
	C228.753235,200.332016 233.885345,200.748260 238.740524,201.392120 
	C224.606232,204.559525 217.418610,217.415543 221.039749,231.145584 
	C223.246445,239.512497 227.667679,246.211273 233.089478,253.034286 
	C232.702835,263.098236 232.379425,272.660004 231.954865,282.217316 
	C231.898163,283.494049 231.329407,284.748047 230.689148,285.873199 
	C227.610794,283.199127 224.739182,280.765869 222.092407,278.108734 
	C216.451920,272.446106 210.928131,266.667236 205.356522,260.936005 
	C205.303024,260.201172 205.249527,259.466339 205.194611,258.362427 
z"/>
<path fill="#0B1617" opacity="1.000000" stroke="none" 
	d="
M718.976318,998.424561 
	C729.755371,998.243164 740.557434,998.432983 751.666016,998.344971 
	C755.651001,998.133789 759.329407,998.200500 763.595703,998.633911 
	C765.147217,999.985718 766.110718,1000.970825 767.074280,1001.955933 
	C765.074463,1009.887268 759.902466,1015.354248 753.355896,1019.820251 
	C745.950134,1024.872314 738.850220,1024.257446 732.463135,1017.992615 
	C726.780212,1012.418457 720.969177,1006.961914 718.976318,998.424561 
z"/>
<path fill="#225C6B" opacity="1.000000" stroke="none" 
	d="
M239.017441,201.164520 
	C233.885345,200.748260 228.753235,200.332016 223.126175,199.841553 
	C227.732681,189.809448 234.524231,181.902939 246.260483,179.675446 
	C250.322540,178.904465 253.712906,180.070419 255.943298,183.192215 
	C259.583527,188.287338 262.707611,193.751251 266.110596,199.406494 
	C262.751526,199.790588 259.331360,199.827728 255.006088,199.894073 
	C249.073135,200.337006 244.045288,200.750763 239.017441,201.164520 
z"/>
<path fill="#ECF0F4" opacity="1.000000" stroke="none" 
	d="
M185.998260,947.999084 
	C188.994049,946.620361 191.872131,944.831421 195.005554,943.932373 
	C210.202652,939.571655 225.751724,939.269165 241.693466,940.704834 
	C229.631577,944.227356 217.381729,948.079468 204.849518,950.419128 
	C199.266327,951.461426 193.114655,949.458618 186.760681,948.589844 
	C186.300369,948.341736 185.998260,947.999084 185.998260,947.999084 
z"/>
<path fill="#0B1617" opacity="1.000000" stroke="none" 
	d="
M185.631927,948.016357 
	C185.998260,947.999084 186.300369,948.341736 186.388565,948.552368 
	C184.778000,950.549622 183.197601,952.469482 181.361206,954.101196 
	C169.647003,964.510132 151.011353,961.704346 146.087357,947.276733 
	C150.061829,948.007446 154.031677,949.164307 158.036835,950.182434 
	C165.930649,952.188965 173.426300,950.708557 180.884094,947.096130 
	C182.474945,947.192261 183.870255,947.612915 185.631927,948.016357 
z"/>
<path fill="#1E2125" opacity="1.000000" stroke="none" 
	d="
M135.701660,914.205933 
	C136.631882,914.616333 137.688293,915.133850 137.867310,915.865906 
	C139.845688,923.957825 141.706390,932.078796 143.547653,940.203613 
	C143.835449,941.473511 143.867035,942.801575 144.027130,944.519836 
	C130.067322,938.399475 127.474472,929.214539 135.701660,914.205933 
z"/>
<path fill="#255F6D" opacity="1.000000" stroke="none" 
	d="
M767.367676,1002.125610 
	C766.110718,1000.970825 765.147217,999.985718 764.039001,998.739380 
	C765.311584,998.420532 766.728760,998.362915 768.564697,998.220215 
	C776.701111,998.329956 784.418884,998.524719 792.603516,998.829224 
	C784.645752,1008.538574 776.636902,1009.596436 767.367676,1002.125610 
z"/>
<path fill="#0B1617" opacity="1.000000" stroke="none" 
	d="
M220.001312,199.489639 
	C213.909821,200.438034 207.735580,201.034363 201.280579,201.387177 
	C206.394165,195.423019 215.061523,194.503967 220.001312,199.489639 
z"/>
<path fill="#000000" opacity="1.000000" stroke="none" 
	d="
M711.995300,928.954285 
	C700.112122,927.528259 688.238770,926.014221 676.343872,924.693420 
	C647.068970,921.442810 617.812805,917.982666 588.495789,915.161560 
	C554.531494,911.893433 520.530945,908.943909 486.507477,906.366028 
	C454.802368,903.963867 423.052032,902.139343 391.310822,900.240723 
	C374.861938,899.256897 358.389709,898.663696 341.464447,897.963623 
	C338.627014,897.957153 336.253174,897.881042 333.054871,897.780823 
	C327.824768,897.620972 323.419128,897.485229 319.013489,897.349487 
	C302.432434,897.163635 285.851379,896.977722 268.933167,896.544678 
	C269.171509,895.703186 269.700989,895.054626 270.329010,894.522278 
	C318.150635,853.991089 363.134796,810.392944 408.092804,766.779541 
	C444.564972,731.398132 480.590973,695.556824 517.068176,660.180664 
	C532.124939,645.578430 548.061218,631.885010 563.179871,617.344055 
	C572.180237,608.687561 577.396179,597.340515 582.206421,586.009888 
	C586.231750,576.528137 583.148438,567.401245 578.268127,559.354980 
	C566.817505,540.476013 555.699585,521.266846 542.659912,503.503082 
	C493.904846,437.084747 439.671906,375.226990 383.103149,315.407257 
	C368.128784,299.572327 352.409363,284.442017 336.944580,268.703796 
	C336.522461,267.786102 336.187897,267.152771 335.853699,266.520203 
	C371.507233,268.992371 406.861450,271.236237 442.179688,273.948578 
	C480.788696,276.913574 519.364441,280.311829 557.954651,283.521301 
	C556.041870,285.305573 554.191895,287.163422 552.203918,288.859619 
	C547.220825,293.111298 544.516541,301.134186 547.096985,306.875000 
	C548.326721,309.610779 550.861145,312.640411 553.536926,313.717285 
	C623.164062,341.739136 692.887634,369.521423 762.808105,398.072113 
	C761.654541,412.634705 760.575378,426.506104 758.857178,440.297882 
	C755.790161,464.916382 752.203064,489.469849 749.087891,514.082703 
	C746.511963,534.435242 744.367981,554.842041 741.914307,575.210571 
	C739.026062,599.186523 735.861755,623.130066 733.093384,647.119568 
	C730.551697,669.144165 728.274780,691.200867 726.070129,713.262390 
	C723.930481,734.672485 721.944885,756.098999 720.053528,777.532593 
	C718.583435,794.192566 717.239014,810.865845 716.065369,827.549133 
	C714.902222,844.083191 713.810852,860.627869 713.082458,877.185242 
	C712.439819,891.794861 712.332581,906.428223 712.010315,921.051575 
	C711.952271,923.684631 711.997620,926.320007 711.995300,928.954285 
z"/>
<path fill="#DDE4EB" opacity="1.000000" stroke="none" 
	d="
M558.297974,283.381989 
	C519.364441,280.311829 480.788696,276.913574 442.179688,273.948578 
	C406.861450,271.236237 371.507233,268.992371 335.853699,266.520203 
	C336.187897,267.152771 336.522461,267.786102 336.508667,268.712280 
	C324.413788,268.035400 312.667267,267.065643 299.757324,265.999847 
	C301.852264,268.211212 303.064209,269.519989 304.307404,270.798401 
	C328.204956,295.373566 352.523163,319.556915 375.875732,344.639313 
	C394.854858,365.024292 412.748260,386.424744 430.986206,407.493408 
	C442.598755,420.908264 454.286926,434.279419 465.355530,448.137909 
	C480.045258,466.530304 494.418793,485.189514 508.454437,504.085968 
	C521.828735,522.091919 534.667847,540.471313 544.502747,560.796204 
	C549.906738,571.964172 550.025208,582.288269 544.397217,593.621033 
	C535.589172,611.357239 522.322876,625.033569 507.672180,637.705750 
	C506.768127,638.487671 505.284607,638.599792 504.166534,638.703369 
	C511.196960,629.464050 518.702087,620.924438 524.943054,611.543762 
	C536.652954,593.942810 538.971069,574.713867 531.511475,554.862488 
	C528.138611,545.886475 524.024231,537.049866 519.137573,528.807251 
	C502.612976,500.933929 481.327972,476.720917 457.859924,454.696503 
	C427.017181,425.751068 395.388184,397.615051 363.473328,369.848175 
	C331.061646,341.649017 297.891174,314.321960 264.915588,286.326355 
	C261.618256,282.885773 258.365143,279.819061 255.316925,276.560638 
	C247.867828,268.597870 240.513504,260.546448 233.121017,252.530716 
	C227.667679,246.211273 223.246445,239.512497 221.039749,231.145584 
	C217.418610,217.415543 224.606232,204.559525 238.740524,201.392120 
	C244.045288,200.750763 249.073135,200.337006 254.552551,199.983948 
	C255.819382,200.689499 256.590637,201.827835 257.456512,201.905029 
	C269.992035,203.022797 282.556702,203.830322 295.080750,205.055878 
	C307.101868,206.232224 319.093689,207.729095 331.080536,209.227859 
	C343.059357,210.725647 355.016266,212.398926 366.982422,213.997833 
	C384.032471,216.276031 401.073273,218.626343 418.134857,220.814560 
	C432.413269,222.645813 446.721252,224.244980 461.006165,226.027161 
	C475.940704,227.890381 490.855530,229.913040 505.793610,231.746796 
	C518.112488,233.259018 530.450500,234.616486 542.783997,236.007446 
	C557.249268,237.638824 571.713013,239.285507 586.188538,240.821274 
	C594.256775,241.677246 602.347534,242.321228 610.882690,243.106323 
	C597.153259,254.144135 582.991150,265.164703 568.768860,276.107208 
	C565.498779,278.623199 562.022644,280.871307 558.297974,283.381989 
z"/>
<path fill="#0B1617" opacity="1.000000" stroke="none" 
	d="
M712.377686,929.109985 
	C711.997620,926.320007 711.952271,923.684631 712.010315,921.051575 
	C712.332581,906.428223 712.439819,891.794861 713.082458,877.185242 
	C713.810852,860.627869 714.902222,844.083191 716.065369,827.549133 
	C717.239014,810.865845 718.583435,794.192566 720.053528,777.532593 
	C721.944885,756.098999 723.930481,734.672485 726.070129,713.262390 
	C728.274780,691.200867 730.551697,669.144165 733.093384,647.119568 
	C735.861755,623.130066 739.026062,599.186523 741.914307,575.210571 
	C744.367981,554.842041 746.511963,534.435242 749.087891,514.082703 
	C752.203064,489.469849 755.790161,464.916382 758.857178,440.297882 
	C760.575378,426.506104 761.654541,412.634705 763.034302,398.347900 
	C773.608704,402.030945 784.170471,406.165222 794.868896,410.997009 
	C791.987854,434.913300 788.919983,458.125793 785.967590,481.352936 
	C783.496704,500.792542 781.163391,520.249634 778.764038,539.698303 
	C776.202209,560.463928 773.482117,581.211426 771.109863,601.998596 
	C768.511108,624.771240 766.212952,647.578308 763.817017,670.373901 
	C761.542725,692.012268 759.103577,713.636230 757.119446,735.301514 
	C755.119263,757.143005 753.426575,779.016174 751.896790,800.896240 
	C750.134644,826.099121 748.257629,851.307373 747.264221,876.546082 
	C746.504700,895.842957 747.041870,915.190796 747.002319,934.515991 
	C735.588257,932.765869 724.174133,931.015747 712.377686,929.109985 
z"/>
<path fill="#276978" opacity="1.000000" stroke="none" 
	d="
M747.340210,934.672668 
	C747.041870,915.190796 746.504700,895.842957 747.264221,876.546082 
	C748.257629,851.307373 750.134644,826.099121 751.896790,800.896240 
	C753.426575,779.016174 755.119263,757.143005 757.119446,735.301514 
	C759.103577,713.636230 761.542725,692.012268 763.817017,670.373901 
	C766.212952,647.578308 768.511108,624.771240 771.109863,601.998596 
	C773.482117,581.211426 776.202209,560.463928 778.764038,539.698303 
	C781.163391,520.249634 783.496704,500.792542 785.967590,481.352936 
	C788.919983,458.125793 791.987854,434.913300 795.100708,411.272034 
	C801.937561,413.451477 808.679443,416.053314 815.715027,418.868042 
	C814.704529,434.915314 813.353577,450.746002 812.113037,466.585358 
	C811.323975,476.659332 810.749023,486.749908 809.988708,496.826324 
	C808.743164,513.332031 807.412231,529.831238 806.144348,546.335327 
	C805.725464,551.787292 805.317749,557.241821 805.030151,562.701782 
	C804.314880,576.280762 803.807129,589.871887 802.966980,603.442749 
	C801.779968,622.617065 800.348206,641.776123 799.064819,660.944641 
	C798.643982,667.230225 798.309021,673.522644 798.022400,679.815918 
	C797.320496,695.228516 796.759216,710.647888 795.974976,726.056030 
	C795.064941,743.934021 793.997253,761.804138 792.958862,779.675415 
	C792.343811,790.260559 791.764832,800.849792 790.970520,811.422241 
	C789.755432,827.596924 788.315918,843.754700 787.073303,859.927429 
	C786.286499,870.168274 785.862854,880.439148 784.952332,890.667725 
	C783.911499,902.360596 782.486633,914.018860 781.279053,925.697388 
	C780.785278,930.472656 780.423767,935.261536 780.003906,940.483398 
	C769.229858,938.891541 758.454041,936.860413 747.340210,934.672668 
z"/>
<path fill="#02194F" opacity="1.000000" stroke="none" 
	d="
M823.870361,193.435974 
	C815.062805,213.245087 806.385864,232.660202 797.592651,252.022522 
	C793.675964,260.646729 789.594360,269.198425 785.433472,277.707642 
	C784.357422,279.908173 782.988708,282.120361 781.253479,283.814026 
	C776.596680,288.359192 768.885193,289.427002 763.662476,286.605377 
	C759.059998,284.118835 755.837036,276.623260 757.307373,270.473511 
	C758.889038,263.858215 760.862610,257.321716 762.967041,250.848999 
	C770.209534,228.573196 777.474854,206.303543 784.953125,184.106216 
	C788.817627,172.635315 794.676392,168.835129 804.286133,170.808044 
	C817.598572,173.541138 824.713196,181.576385 823.870361,193.435974 
z"/>
<path fill="#021A50" opacity="1.000000" stroke="none" 
	d="
M757.639099,334.663818 
	C745.930908,334.522675 737.959290,327.713013 736.995483,317.435364 
	C736.047424,307.326416 742.277954,299.261353 752.056580,297.939545 
	C763.534973,296.388000 772.436829,302.621674 774.325134,313.533386 
	C775.980103,323.096222 769.755798,332.063904 759.994324,334.180634 
	C759.344238,334.321594 758.694214,334.462585 757.639099,334.663818 
z"/>
<path fill="#F0F4F8" opacity="1.000000" stroke="none" 
	d="
M504.070679,639.023560 
	C505.284607,638.599792 506.768127,638.487671 507.672180,637.705750 
	C522.322876,625.033569 535.589172,611.357239 544.397217,593.621033 
	C550.025208,582.288269 549.906738,571.964172 544.502747,560.796204 
	C534.667847,540.471313 521.828735,522.091919 508.454437,504.085968 
	C494.418793,485.189514 480.045258,466.530304 465.355530,448.137909 
	C454.286926,434.279419 442.598755,420.908264 430.986206,407.493408 
	C412.748260,386.424744 394.854858,365.024292 375.875732,344.639313 
	C352.523163,319.556915 328.204956,295.373566 304.307404,270.798401 
	C303.064209,269.519989 301.852264,268.211212 299.757324,265.999847 
	C312.667267,267.065643 324.413788,268.035400 336.596191,268.996643 
	C352.409363,284.442017 368.128784,299.572327 383.103149,315.407257 
	C439.671906,375.226990 493.904846,437.084747 542.659912,503.503082 
	C555.699585,521.266846 566.817505,540.476013 578.268127,559.354980 
	C583.148438,567.401245 586.231750,576.528137 582.206421,586.009888 
	C577.396179,597.340515 572.180237,608.687561 563.179871,617.344055 
	C548.061218,631.885010 532.124939,645.578430 517.068176,660.180664 
	C480.590973,695.556824 444.564972,731.398132 408.092804,766.779541 
	C363.134796,810.392944 318.150635,853.991089 270.329010,894.522278 
	C269.700989,895.054626 269.171509,895.703186 268.490875,896.592285 
	C257.265991,896.887024 246.146255,896.887024 233.478180,896.887024 
	C238.617432,892.226868 242.779617,888.377625 247.023453,884.620667 
	C254.839981,877.701172 262.882355,871.026794 270.515625,863.912231 
	C293.106506,842.856384 315.541840,821.633728 338.042725,800.481323 
	C343.122498,795.705994 348.315155,791.046692 353.294708,786.169495 
	C373.613739,766.268311 393.859070,746.291870 414.153198,726.365295 
	C430.528076,710.286865 446.911346,694.216736 463.343109,678.196533 
	C467.142426,674.492310 471.207550,671.061584 475.036407,667.386292 
	C476.188354,666.280518 476.955261,664.773621 478.048889,662.802979 
	C486.823090,654.444824 495.446869,646.734192 504.070679,639.023560 
z"/>
<path fill="#1F2226" opacity="1.000000" stroke="none" 
	d="
M504.166534,638.703369 
	C495.446869,646.734192 486.823090,654.444824 478.041809,662.442505 
	C465.002899,672.142029 452.511047,682.152649 439.161621,690.846497 
	C408.377197,710.895203 377.377960,730.632263 346.088013,749.881592 
	C314.520874,769.301514 284.565826,790.692566 257.960968,816.625671 
	C250.098862,824.289368 241.720322,831.423218 232.980591,838.685669 
	C232.287872,836.445862 232.006500,834.309387 232.130966,832.196777 
	C232.623718,823.833008 233.243561,815.476624 233.885208,806.823364 
	C234.008499,806.335876 234.062851,806.142517 234.453033,805.919983 
	C236.315964,804.639099 237.817673,803.354980 239.374054,802.140869 
	C254.021530,790.715210 267.999359,778.268860 283.471375,768.095642 
	C317.497772,745.722534 352.580261,724.957275 386.643066,702.637451 
	C407.316223,689.091125 427.329193,674.430054 446.820282,659.220886 
	C462.661194,646.859985 476.993286,632.648743 487.961761,615.519714 
	C495.875153,603.161743 502.616669,590.040039 500.737885,574.955261 
	C499.484161,564.888977 496.939758,554.617798 492.914551,545.330505 
	C480.505005,516.698120 460.318817,493.331329 439.215485,470.905884 
	C413.093872,443.147705 384.918091,417.494263 356.059448,392.607574 
	C344.620636,382.743195 333.078400,372.997009 321.490997,363.307251 
	C308.634583,352.556396 295.723816,341.868958 282.735107,331.278534 
	C276.347137,326.070038 269.729889,321.142822 263.157410,315.750824 
	C263.087860,314.957367 263.077301,314.501434 263.102875,313.624420 
	C263.777008,304.339905 264.415009,295.476440 265.053009,286.612976 
	C297.891174,314.321960 331.061646,341.649017 363.473328,369.848175 
	C395.388184,397.615051 427.017181,425.751068 457.859924,454.696503 
	C481.327972,476.720917 502.612976,500.933929 519.137573,528.807251 
	C524.024231,537.049866 528.138611,545.886475 531.511475,554.862488 
	C538.971069,574.713867 536.652954,593.942810 524.943054,611.543762 
	C518.702087,620.924438 511.196960,629.464050 504.166534,638.703369 
z"/>
<path fill="#396A7A" opacity="1.000000" stroke="none" 
	d="
M233.816269,807.117554 
	C233.243561,815.476624 232.623718,823.833008 232.130966,832.196777 
	C232.006500,834.309387 232.287872,836.445862 232.690018,838.861511 
	C220.953400,850.915283 208.909515,862.678955 196.516571,874.162842 
	C196.778122,862.588684 197.388763,851.294312 198.108505,839.744995 
	C198.479324,839.002014 198.741043,838.513977 199.300140,837.869385 
	C203.164886,834.542969 206.741821,831.383850 210.297699,828.201172 
	C218.142838,821.179626 225.977386,814.146179 233.816269,807.117554 
z"/>
<path fill="#3C7383" opacity="1.000000" stroke="none" 
	d="
M197.999390,840.000000 
	C197.388763,851.294312 196.778122,862.588684 196.241440,874.405518 
	C189.087723,884.862915 181.860046,894.797729 174.333267,904.905334 
	C173.022690,899.307373 171.803467,893.563354 171.057083,887.758484 
	C170.281952,881.730225 169.964264,875.643188 169.154968,869.281128 
	C168.973160,868.248962 169.082932,867.517456 169.578461,866.352783 
	C171.459167,864.629761 172.998627,863.387695 174.441696,862.042297 
	C182.307373,854.708862 190.149307,847.350098 197.999390,840.000000 
z"/>
<path fill="#ECF0F4" opacity="1.000000" stroke="none" 
	d="
M319.159668,897.702454 
	C323.419128,897.485229 327.824768,897.620972 332.618011,897.872070 
	C328.439026,898.010132 323.872467,898.032776 319.159668,897.702454 
z"/>
<path fill="#266776" opacity="1.000000" stroke="none" 
	d="
M198.108490,839.744995 
	C190.149307,847.350098 182.307373,854.708862 174.441696,862.042297 
	C172.998627,863.387695 171.459167,864.629761 169.653458,865.990479 
	C168.929581,860.429871 168.217987,854.801697 168.151993,849.166077 
	C167.738785,813.880371 167.144867,778.591858 167.263840,743.306519 
	C167.346817,718.694275 168.321411,694.080261 169.175613,669.476746 
	C169.965820,646.715759 170.995209,623.961060 172.159180,601.215820 
	C173.322571,578.481323 174.618332,555.750854 176.156693,533.039001 
	C177.975052,506.192932 179.846405,479.345184 182.187180,452.541199 
	C184.873596,421.779327 187.532990,390.995911 191.245407,360.348022 
	C195.235519,327.407379 200.434265,294.613129 205.231079,261.345520 
	C210.928131,266.667236 216.451920,272.446106 222.092407,278.108734 
	C224.739182,280.765869 227.610794,283.199127 230.799957,286.127563 
	C231.481842,287.009918 231.744324,287.498505 231.722260,288.290070 
	C230.626099,299.652527 229.668579,310.703735 229.039139,321.773590 
	C228.219894,336.180969 227.680313,350.604156 226.981018,365.018585 
	C226.691833,370.979340 226.351334,376.938538 225.946381,382.892487 
	C224.653900,401.895905 223.260757,420.892670 222.020477,439.899414 
	C220.941391,456.435974 220.003189,472.981750 219.028168,489.524963 
	C218.004196,506.898956 217.019302,524.275330 216.000290,541.649597 
	C215.359940,552.567749 214.674698,563.483215 214.033646,574.401306 
	C213.013550,591.775574 212.023453,609.151672 211.002075,626.525818 
	C210.019775,643.235352 209.005539,659.942932 208.020752,676.652283 
	C207.006592,693.860107 205.953445,711.065857 205.025360,728.278381 
	C204.266266,742.356201 203.686127,756.443542 202.985764,770.524658 
	C202.697556,776.319031 202.298218,782.107727 201.956314,787.899475 
	C200.969894,804.608215 199.986984,821.317078 199.002731,838.025940 
	C198.741043,838.513977 198.479324,839.002014 198.108490,839.744995 
z"/>
<path fill="#386A7A" opacity="1.000000" stroke="none" 
	d="
M232.006790,287.987091 
	C231.744324,287.498505 231.481842,287.009918 231.108582,286.266968 
	C231.329407,284.748047 231.898163,283.494049 231.954865,282.217316 
	C232.379425,272.660004 232.702835,263.098236 233.089478,253.034286 
	C240.513504,260.546448 247.867828,268.597870 255.316925,276.560638 
	C258.365143,279.819061 261.618256,282.885773 264.915588,286.326355 
	C264.415009,295.476440 263.777008,304.339905 262.751068,313.575256 
	C261.304138,313.193237 260.174500,312.520721 259.197205,311.672638 
	C250.118790,303.794678 241.066589,295.886505 232.006790,287.987091 
z"/>
<path fill="#000000" opacity="1.000000" stroke="none" 
	d="
M263.216370,316.088318 
	C269.729889,321.142822 276.347137,326.070038 282.735107,331.278534 
	C295.723816,341.868958 308.634583,352.556396 321.490997,363.307251 
	C333.078400,372.997009 344.620636,382.743195 356.059448,392.607574 
	C384.918091,417.494263 413.093872,443.147705 439.215485,470.905884 
	C460.318817,493.331329 480.505005,516.698120 492.914551,545.330505 
	C496.939758,554.617798 499.484161,564.888977 500.737885,574.955261 
	C502.616669,590.040039 495.875153,603.161743 487.961761,615.519714 
	C476.993286,632.648743 462.661194,646.859985 446.820282,659.220886 
	C427.329193,674.430054 407.316223,689.091125 386.643066,702.637451 
	C352.580261,724.957275 317.497772,745.722534 283.471375,768.095642 
	C267.999359,778.268860 254.021530,790.715210 239.374054,802.140869 
	C237.817673,803.354980 236.315964,804.639099 234.429764,805.470276 
	C234.359070,801.425964 234.698914,797.805298 234.927719,794.177734 
	C236.591980,767.791992 238.259140,741.406433 239.875061,715.017761 
	C241.237015,692.776367 242.541595,670.531372 243.852783,648.286926 
	C245.535858,619.733521 247.192963,591.178528 248.874588,562.625061 
	C250.517029,534.736572 252.183899,506.849548 253.825882,478.961060 
	C255.516785,450.241302 257.209473,421.521667 258.866272,392.799927 
	C260.341217,367.230835 261.768219,341.658966 263.216370,316.088318 
z"/>
<path fill="#215C6B" opacity="1.000000" stroke="none" 
	d="
M263.157410,315.750824 
	C261.768219,341.658966 260.341217,367.230835 258.866272,392.799927 
	C257.209473,421.521667 255.516785,450.241302 253.825882,478.961060 
	C252.183899,506.849548 250.517029,534.736572 248.874588,562.625061 
	C247.192963,591.178528 245.535858,619.733521 243.852783,648.286926 
	C242.541595,670.531372 241.237015,692.776367 239.875061,715.017761 
	C238.259140,741.406433 236.591980,767.791992 234.927719,794.177734 
	C234.698914,797.805298 234.359070,801.425964 234.093933,805.499512 
	C234.062851,806.142517 234.008499,806.335876 233.885208,806.823364 
	C225.977386,814.146179 218.142838,821.179626 210.297699,828.201172 
	C206.741821,831.383850 203.164886,834.542969 199.300110,837.869385 
	C199.986984,821.317078 200.969894,804.608215 201.956314,787.899475 
	C202.298218,782.107727 202.697556,776.319031 202.985764,770.524658 
	C203.686127,756.443542 204.266266,742.356201 205.025360,728.278381 
	C205.953445,711.065857 207.006592,693.860107 208.020752,676.652283 
	C209.005539,659.942932 210.019775,643.235352 211.002075,626.525818 
	C212.023453,609.151672 213.013550,591.775574 214.033646,574.401306 
	C214.674698,563.483215 215.359940,552.567749 216.000290,541.649597 
	C217.019302,524.275330 218.004196,506.898956 219.028168,489.524963 
	C220.003189,472.981750 220.941391,456.435974 222.020477,439.899414 
	C223.260757,420.892670 224.653900,401.895905 225.946381,382.892487 
	C226.351334,376.938538 226.691833,370.979340 226.981018,365.018585 
	C227.680313,350.604156 228.219894,336.180969 229.039139,321.773590 
	C229.668579,310.703735 230.626099,299.652527 231.722260,288.290070 
	C241.066589,295.886505 250.118790,303.794678 259.197205,311.672638 
	C260.174500,312.520721 261.304138,313.193237 262.714935,313.996338 
	C263.077301,314.501434 263.087860,314.957367 263.157410,315.750824 
z"/>
</svg>